<mxfile host="Electron" agent="Mozilla/5.0 (Windows NT 10.0; Win64; x64) AppleWebKit/537.36 (KHTML, like Gecko) draw.io/28.1.2 Chrome/138.0.7204.243 Electron/37.4.0 Safari/537.36" version="28.1.2">
  <diagram name="Page-1" id="fV3hQE0dxuffZx4B_WZl">
    <mxGraphModel dx="3204" dy="1432" grid="1" gridSize="10" guides="0" tooltips="1" connect="1" arrows="0" fold="1" page="1" pageScale="1" pageWidth="827" pageHeight="1169" math="0" shadow="0">
      <root>
        <mxCell id="0" />
        <mxCell id="1" parent="0" />
        <mxCell id="DYolzxln7jAGXBVzfGWy-4" value="" style="group" vertex="1" connectable="0" parent="1">
          <mxGeometry x="840" y="850" width="379" height="870" as="geometry" />
        </mxCell>
        <mxCell id="v0YyFfMFPHar8UtoXrKx-92" value="" style="rounded=0;whiteSpace=wrap;html=1;fillColor=#f5f5f5;fontColor=#333333;strokeColor=#666666;" parent="DYolzxln7jAGXBVzfGWy-4" vertex="1">
          <mxGeometry width="379" height="870" as="geometry" />
        </mxCell>
        <mxCell id="v0YyFfMFPHar8UtoXrKx-281" style="edgeStyle=orthogonalEdgeStyle;rounded=0;orthogonalLoop=1;jettySize=auto;html=1;exitX=0.5;exitY=1;exitDx=0;exitDy=0;" parent="DYolzxln7jAGXBVzfGWy-4" source="v0YyFfMFPHar8UtoXrKx-279" target="v0YyFfMFPHar8UtoXrKx-49" edge="1">
          <mxGeometry relative="1" as="geometry" />
        </mxCell>
        <mxCell id="v0YyFfMFPHar8UtoXrKx-279" value="&lt;div&gt;&lt;span style=&quot;color: rgb(204, 0, 204);&quot;&gt;&lt;b&gt;ResolveRaidPoints&lt;/b&gt;&lt;/span&gt;&lt;/div&gt;&lt;div&gt;&lt;span style=&quot;color: rgb(204, 0, 204);&quot;&gt;&lt;b&gt;TryResolveRaidFaction&lt;/b&gt;&lt;/span&gt;&lt;/div&gt;" style="shape=process;whiteSpace=wrap;html=1;backgroundOutline=1;size=0.05;fillColor=#d5e8d4;strokeColor=#82b366;" parent="DYolzxln7jAGXBVzfGWy-4" vertex="1">
          <mxGeometry x="109.5" y="79.5" width="160" height="41" as="geometry" />
        </mxCell>
        <mxCell id="v0YyFfMFPHar8UtoXrKx-140" value="" style="edgeStyle=orthogonalEdgeStyle;rounded=0;orthogonalLoop=1;jettySize=auto;html=1;" parent="DYolzxln7jAGXBVzfGWy-4" source="v0YyFfMFPHar8UtoXrKx-138" edge="1">
          <mxGeometry relative="1" as="geometry">
            <mxPoint x="189.9565217391305" y="390" as="targetPoint" />
          </mxGeometry>
        </mxCell>
        <mxCell id="v0YyFfMFPHar8UtoXrKx-138" value="&lt;font style=&quot;color: rgb(0, 0, 0);&quot;&gt;&lt;b&gt;TryGenerateThreats&lt;/b&gt;&lt;/font&gt;&lt;div&gt;&lt;div&gt;&lt;span style=&quot;background-color: transparent;&quot;&gt;raidStrategy.Worker&lt;/span&gt;&lt;/div&gt;&lt;/div&gt;" style="shape=process;whiteSpace=wrap;html=1;backgroundOutline=1;fillColor=#d5e8d4;strokeColor=#82b366;size=0.06666666666666667;" parent="DYolzxln7jAGXBVzfGWy-4" vertex="1">
          <mxGeometry x="115" y="320" width="150" height="50" as="geometry" />
        </mxCell>
        <mxCell id="v0YyFfMFPHar8UtoXrKx-53" value="" style="edgeStyle=orthogonalEdgeStyle;rounded=0;orthogonalLoop=1;jettySize=auto;html=1;" parent="DYolzxln7jAGXBVzfGWy-4" source="v0YyFfMFPHar8UtoXrKx-49" edge="1">
          <mxGeometry relative="1" as="geometry">
            <mxPoint x="190" y="200" as="targetPoint" />
          </mxGeometry>
        </mxCell>
        <mxCell id="v0YyFfMFPHar8UtoXrKx-54" value="" style="edgeStyle=orthogonalEdgeStyle;rounded=0;orthogonalLoop=1;jettySize=auto;html=1;" parent="DYolzxln7jAGXBVzfGWy-4" source="v0YyFfMFPHar8UtoXrKx-49" edge="1">
          <mxGeometry relative="1" as="geometry">
            <mxPoint x="190" y="200" as="targetPoint" />
          </mxGeometry>
        </mxCell>
        <mxCell id="v0YyFfMFPHar8UtoXrKx-49" value="&lt;font style=&quot;background-color: light-dark(#ffffff, var(--ge-dark-color, #121212)); color: rgb(0, 0, 0);&quot;&gt;groupKind&lt;/font&gt;&lt;div&gt;&lt;font style=&quot;background-color: light-dark(#ffffff, var(--ge-dark-color, #121212)); color: rgb(0, 0, 0);&quot;&gt;defaults to&amp;nbsp;Combat&lt;/font&gt;&lt;/div&gt;" style="rounded=0;whiteSpace=wrap;html=1;" parent="DYolzxln7jAGXBVzfGWy-4" vertex="1">
          <mxGeometry x="120" y="140" width="140" height="40" as="geometry" />
        </mxCell>
        <mxCell id="v0YyFfMFPHar8UtoXrKx-63" style="edgeStyle=orthogonalEdgeStyle;rounded=0;orthogonalLoop=1;jettySize=auto;html=1;exitX=0;exitY=0.5;exitDx=0;exitDy=0;strokeColor=#FF0000;" parent="DYolzxln7jAGXBVzfGWy-4" target="v0YyFfMFPHar8UtoXrKx-138" edge="1">
          <mxGeometry relative="1" as="geometry">
            <mxPoint x="120" y="210" as="sourcePoint" />
            <mxPoint x="110" y="345" as="targetPoint" />
            <Array as="points">
              <mxPoint x="59" y="210" />
              <mxPoint x="59" y="345" />
            </Array>
          </mxGeometry>
        </mxCell>
        <mxCell id="v0YyFfMFPHar8UtoXrKx-86" style="edgeStyle=orthogonalEdgeStyle;rounded=0;orthogonalLoop=1;jettySize=auto;html=1;exitX=0;exitY=0.5;exitDx=0;exitDy=0;strokeColor=#FF0000;" parent="DYolzxln7jAGXBVzfGWy-4" target="v0YyFfMFPHar8UtoXrKx-144" edge="1">
          <mxGeometry relative="1" as="geometry">
            <mxPoint x="120" y="210" as="sourcePoint" />
            <mxPoint x="100" y="525" as="targetPoint" />
            <Array as="points">
              <mxPoint x="59" y="210" />
              <mxPoint x="59" y="525" />
            </Array>
          </mxGeometry>
        </mxCell>
        <mxCell id="v0YyFfMFPHar8UtoXrKx-64" style="edgeStyle=orthogonalEdgeStyle;rounded=0;orthogonalLoop=1;jettySize=auto;html=1;exitX=0;exitY=0.5;exitDx=0;exitDy=0;strokeColor=#3333FF;" parent="DYolzxln7jAGXBVzfGWy-4" target="v0YyFfMFPHar8UtoXrKx-142" edge="1">
          <mxGeometry relative="1" as="geometry">
            <mxPoint x="100" y="415" as="targetPoint" />
            <Array as="points">
              <mxPoint x="29" y="250" />
              <mxPoint x="29" y="415" />
            </Array>
            <mxPoint x="100" y="250" as="sourcePoint" />
          </mxGeometry>
        </mxCell>
        <mxCell id="v0YyFfMFPHar8UtoXrKx-87" style="edgeStyle=orthogonalEdgeStyle;rounded=0;orthogonalLoop=1;jettySize=auto;html=1;exitX=0;exitY=0.5;exitDx=0;exitDy=0;strokeColor=#3333FF;" parent="DYolzxln7jAGXBVzfGWy-4" target="v0YyFfMFPHar8UtoXrKx-146" edge="1">
          <mxGeometry relative="1" as="geometry">
            <mxPoint x="171" y="735" as="targetPoint" />
            <Array as="points">
              <mxPoint x="29" y="250" />
              <mxPoint x="29" y="735" />
            </Array>
            <mxPoint x="100" y="250" as="sourcePoint" />
          </mxGeometry>
        </mxCell>
        <mxCell id="v0YyFfMFPHar8UtoXrKx-70" value="" style="edgeStyle=orthogonalEdgeStyle;rounded=0;orthogonalLoop=1;jettySize=auto;html=1;" parent="DYolzxln7jAGXBVzfGWy-4" source="v0YyFfMFPHar8UtoXrKx-68" edge="1">
          <mxGeometry relative="1" as="geometry">
            <mxPoint x="189.9565217391305" y="500" as="targetPoint" />
          </mxGeometry>
        </mxCell>
        <mxCell id="v0YyFfMFPHar8UtoXrKx-68" value="AdjustedRaidPoints" style="rounded=0;whiteSpace=wrap;html=1;" parent="DYolzxln7jAGXBVzfGWy-4" vertex="1">
          <mxGeometry x="110" y="460" width="160" height="20" as="geometry" />
        </mxCell>
        <mxCell id="v0YyFfMFPHar8UtoXrKx-74" style="edgeStyle=orthogonalEdgeStyle;rounded=0;orthogonalLoop=1;jettySize=auto;html=1;exitX=1;exitY=0.5;exitDx=0;exitDy=0;entryX=0.5;entryY=0;entryDx=0;entryDy=0;" parent="DYolzxln7jAGXBVzfGWy-4" source="v0YyFfMFPHar8UtoXrKx-71" edge="1">
          <mxGeometry relative="1" as="geometry">
            <mxPoint x="251" y="620" as="targetPoint" />
          </mxGeometry>
        </mxCell>
        <mxCell id="v0YyFfMFPHar8UtoXrKx-75" value="yes" style="edgeLabel;html=1;align=center;verticalAlign=middle;resizable=0;points=[];" parent="v0YyFfMFPHar8UtoXrKx-74" vertex="1" connectable="0">
          <mxGeometry x="-0.4722" relative="1" as="geometry">
            <mxPoint as="offset" />
          </mxGeometry>
        </mxCell>
        <mxCell id="v0YyFfMFPHar8UtoXrKx-81" style="edgeStyle=orthogonalEdgeStyle;rounded=0;orthogonalLoop=1;jettySize=auto;html=1;exitX=0;exitY=0.5;exitDx=0;exitDy=0;" parent="DYolzxln7jAGXBVzfGWy-4" source="v0YyFfMFPHar8UtoXrKx-71" target="dDd5OGA8RlVPMjsbOSa7-169" edge="1">
          <mxGeometry relative="1" as="geometry">
            <Array as="points">
              <mxPoint x="90" y="590" />
              <mxPoint x="90" y="780" />
              <mxPoint x="190" y="780" />
            </Array>
          </mxGeometry>
        </mxCell>
        <mxCell id="v0YyFfMFPHar8UtoXrKx-82" value="no" style="edgeLabel;html=1;align=center;verticalAlign=middle;resizable=0;points=[];" parent="v0YyFfMFPHar8UtoXrKx-81" vertex="1" connectable="0">
          <mxGeometry x="-0.928" y="-1" relative="1" as="geometry">
            <mxPoint as="offset" />
          </mxGeometry>
        </mxCell>
        <mxCell id="v0YyFfMFPHar8UtoXrKx-71" value="null?" style="rhombus;whiteSpace=wrap;html=1;" parent="DYolzxln7jAGXBVzfGWy-4" vertex="1">
          <mxGeometry x="150" y="570" width="80" height="40" as="geometry" />
        </mxCell>
        <mxCell id="v0YyFfMFPHar8UtoXrKx-143" value="" style="edgeStyle=orthogonalEdgeStyle;rounded=0;orthogonalLoop=1;jettySize=auto;html=1;" parent="DYolzxln7jAGXBVzfGWy-4" source="v0YyFfMFPHar8UtoXrKx-142" target="v0YyFfMFPHar8UtoXrKx-68" edge="1">
          <mxGeometry relative="1" as="geometry" />
        </mxCell>
        <mxCell id="v0YyFfMFPHar8UtoXrKx-142" value="&lt;font style=&quot;color: rgb(0, 0, 0);&quot;&gt;&lt;b&gt;TryResolveRaidSpawnCenter&lt;/b&gt;&lt;/font&gt;&lt;div&gt;&lt;div&gt;&lt;span style=&quot;background-color: transparent;&quot;&gt;raidArrivalMode.Worker&lt;/span&gt;&lt;/div&gt;&lt;/div&gt;" style="shape=process;whiteSpace=wrap;html=1;backgroundOutline=1;fillColor=#d5e8d4;strokeColor=#82b366;size=0.04347826086956521;" parent="DYolzxln7jAGXBVzfGWy-4" vertex="1">
          <mxGeometry x="95" y="390" width="190" height="50" as="geometry" />
        </mxCell>
        <mxCell id="dDd5OGA8RlVPMjsbOSa7-173" style="edgeStyle=orthogonalEdgeStyle;rounded=0;orthogonalLoop=1;jettySize=auto;html=1;exitX=0.5;exitY=1;exitDx=0;exitDy=0;" parent="DYolzxln7jAGXBVzfGWy-4" source="v0YyFfMFPHar8UtoXrKx-144" target="v0YyFfMFPHar8UtoXrKx-71" edge="1">
          <mxGeometry relative="1" as="geometry" />
        </mxCell>
        <mxCell id="v0YyFfMFPHar8UtoXrKx-144" value="&lt;div&gt;&lt;b&gt;SpawnThreats&lt;/b&gt;&lt;/div&gt;&lt;div&gt;&lt;span style=&quot;background-color: transparent;&quot;&gt;raidStrategy.Worker&lt;/span&gt;&lt;/div&gt;" style="shape=process;whiteSpace=wrap;html=1;backgroundOutline=1;fillColor=#d5e8d4;strokeColor=#82b366;size=0.07142857142857142;" parent="DYolzxln7jAGXBVzfGWy-4" vertex="1">
          <mxGeometry x="119.5" y="500" width="140" height="50" as="geometry" />
        </mxCell>
        <mxCell id="dDd5OGA8RlVPMjsbOSa7-170" style="edgeStyle=orthogonalEdgeStyle;rounded=0;orthogonalLoop=1;jettySize=auto;html=1;exitX=0.5;exitY=1;exitDx=0;exitDy=0;" parent="DYolzxln7jAGXBVzfGWy-4" source="v0YyFfMFPHar8UtoXrKx-146" target="dDd5OGA8RlVPMjsbOSa7-169" edge="1">
          <mxGeometry relative="1" as="geometry" />
        </mxCell>
        <mxCell id="v0YyFfMFPHar8UtoXrKx-146" value="&lt;b&gt;Arrive&lt;/b&gt;&lt;div&gt;&lt;span style=&quot;background-color: transparent; color: light-dark(rgb(0, 0, 0), rgb(255, 255, 255));&quot;&gt;raidArrivalMode.Worker&lt;/span&gt;&lt;/div&gt;" style="shape=process;whiteSpace=wrap;html=1;backgroundOutline=1;fillColor=#d5e8d4;strokeColor=#82b366;size=0.06666666666666667;" parent="DYolzxln7jAGXBVzfGWy-4" vertex="1">
          <mxGeometry x="176" y="710" width="150" height="50" as="geometry" />
        </mxCell>
        <mxCell id="v0YyFfMFPHar8UtoXrKx-149" value="" style="edgeStyle=orthogonalEdgeStyle;rounded=0;orthogonalLoop=1;jettySize=auto;html=1;" parent="DYolzxln7jAGXBVzfGWy-4" source="v0YyFfMFPHar8UtoXrKx-148" target="v0YyFfMFPHar8UtoXrKx-146" edge="1">
          <mxGeometry relative="1" as="geometry" />
        </mxCell>
        <mxCell id="v0YyFfMFPHar8UtoXrKx-148" value="&lt;b&gt;GeneratePawns&lt;/b&gt;&lt;div&gt;&lt;span style=&quot;background-color: transparent; color: light-dark(rgb(0, 0, 0), rgb(255, 255, 255));&quot;&gt;GetDefaultPawnGroupMakerParms&lt;/span&gt;&lt;/div&gt;&lt;div&gt;GeneratePawns&lt;/div&gt;" style="shape=process;whiteSpace=wrap;html=1;backgroundOutline=1;fillColor=#d5e8d4;strokeColor=#82b366;size=0.045454545454545456;" parent="DYolzxln7jAGXBVzfGWy-4" vertex="1">
          <mxGeometry x="141" y="620" width="220" height="60" as="geometry" />
        </mxCell>
        <mxCell id="dDd5OGA8RlVPMjsbOSa7-156" style="edgeStyle=orthogonalEdgeStyle;rounded=0;orthogonalLoop=1;jettySize=auto;html=1;exitX=0.5;exitY=1;exitDx=0;exitDy=0;" parent="DYolzxln7jAGXBVzfGWy-4" source="v0YyFfMFPHar8UtoXrKx-282" target="dDd5OGA8RlVPMjsbOSa7-155" edge="1">
          <mxGeometry relative="1" as="geometry" />
        </mxCell>
        <mxCell id="v0YyFfMFPHar8UtoXrKx-282" value="&lt;span style=&quot;color: rgb(204, 0, 204);&quot;&gt;ResolveRaidStrategy&lt;/span&gt;" style="shape=process;whiteSpace=wrap;html=1;backgroundOutline=1;size=0.05;fontStyle=1;fillColor=#d5e8d4;strokeColor=#82b366;" parent="DYolzxln7jAGXBVzfGWy-4" vertex="1">
          <mxGeometry x="120" y="200" width="140" height="20" as="geometry" />
        </mxCell>
        <mxCell id="dDd5OGA8RlVPMjsbOSa7-159" style="edgeStyle=orthogonalEdgeStyle;rounded=0;orthogonalLoop=1;jettySize=auto;html=1;exitX=0.5;exitY=1;exitDx=0;exitDy=0;" parent="DYolzxln7jAGXBVzfGWy-4" source="dDd5OGA8RlVPMjsbOSa7-155" target="dDd5OGA8RlVPMjsbOSa7-158" edge="1">
          <mxGeometry relative="1" as="geometry" />
        </mxCell>
        <mxCell id="dDd5OGA8RlVPMjsbOSa7-155" value="&lt;span style=&quot;color: rgb(51, 51, 255);&quot;&gt;TryResolveRaidArriveMode&lt;/span&gt;" style="shape=process;whiteSpace=wrap;html=1;backgroundOutline=1;size=0.05;fontStyle=1;fillColor=#d5e8d4;strokeColor=#82b366;" parent="DYolzxln7jAGXBVzfGWy-4" vertex="1">
          <mxGeometry x="100" y="240" width="180" height="20" as="geometry" />
        </mxCell>
        <mxCell id="dDd5OGA8RlVPMjsbOSa7-160" style="edgeStyle=orthogonalEdgeStyle;rounded=0;orthogonalLoop=1;jettySize=auto;html=1;exitX=0.5;exitY=1;exitDx=0;exitDy=0;" parent="DYolzxln7jAGXBVzfGWy-4" source="dDd5OGA8RlVPMjsbOSa7-158" target="v0YyFfMFPHar8UtoXrKx-138" edge="1">
          <mxGeometry relative="1" as="geometry" />
        </mxCell>
        <mxCell id="dDd5OGA8RlVPMjsbOSa7-158" value="&lt;span style=&quot;color: rgb(51, 51, 255);&quot;&gt;ResolveRaidAgeRestriction&lt;/span&gt;" style="shape=process;whiteSpace=wrap;html=1;backgroundOutline=1;size=0.05;fontStyle=1;fillColor=#d5e8d4;strokeColor=#82b366;" parent="DYolzxln7jAGXBVzfGWy-4" vertex="1">
          <mxGeometry x="100" y="280" width="180" height="20" as="geometry" />
        </mxCell>
        <mxCell id="dDd5OGA8RlVPMjsbOSa7-172" style="edgeStyle=orthogonalEdgeStyle;rounded=0;orthogonalLoop=1;jettySize=auto;html=1;exitX=0.5;exitY=1;exitDx=0;exitDy=0;" parent="DYolzxln7jAGXBVzfGWy-4" source="dDd5OGA8RlVPMjsbOSa7-169" target="dDd5OGA8RlVPMjsbOSa7-171" edge="1">
          <mxGeometry relative="1" as="geometry" />
        </mxCell>
        <mxCell id="dDd5OGA8RlVPMjsbOSa7-169" value="&lt;b&gt;&lt;font style=&quot;color: rgb(51, 51, 255);&quot;&gt;PostProcessSpawnedPawns&lt;/font&gt;&lt;/b&gt;" style="shape=process;whiteSpace=wrap;html=1;backgroundOutline=1;fillColor=#d5e8d4;strokeColor=#82b366;size=0.05555555555555555;" parent="DYolzxln7jAGXBVzfGWy-4" vertex="1">
          <mxGeometry x="89.5" y="800" width="200" height="20" as="geometry" />
        </mxCell>
        <mxCell id="dDd5OGA8RlVPMjsbOSa7-171" value="&lt;b&gt;&lt;font style=&quot;color: rgb(51, 51, 255);&quot;&gt;GenerateRaidLoot&lt;/font&gt;&lt;/b&gt;" style="shape=process;whiteSpace=wrap;html=1;backgroundOutline=1;fillColor=#d5e8d4;strokeColor=#82b366;size=0.05555555555555555;" parent="DYolzxln7jAGXBVzfGWy-4" vertex="1">
          <mxGeometry x="90" y="840" width="200" height="20" as="geometry" />
        </mxCell>
        <mxCell id="DYolzxln7jAGXBVzfGWy-3" style="edgeStyle=orthogonalEdgeStyle;rounded=0;orthogonalLoop=1;jettySize=auto;html=1;exitX=0.5;exitY=0.5;exitDx=0;exitDy=25;exitPerimeter=0;" edge="1" parent="DYolzxln7jAGXBVzfGWy-4" source="dDd5OGA8RlVPMjsbOSa7-195" target="v0YyFfMFPHar8UtoXrKx-279">
          <mxGeometry relative="1" as="geometry" />
        </mxCell>
        <mxCell id="dDd5OGA8RlVPMjsbOSa7-195" value="&lt;b&gt;TryGenerateRaidInfo&lt;/b&gt;&lt;br&gt;&lt;div style=&quot;text-align: right;&quot;&gt;&lt;span style=&quot;background-color: transparent;&quot;&gt;=&amp;gt;&amp;nbsp;parms&lt;/span&gt;&lt;/div&gt;&lt;div style=&quot;text-align: right;&quot;&gt;-&amp;gt; bool&lt;span style=&quot;background-color: transparent;&quot;&gt;&lt;/span&gt;&lt;/div&gt;" style="html=1;dashed=0;whiteSpace=wrap;shape=mxgraph.dfd.start" parent="DYolzxln7jAGXBVzfGWy-4" vertex="1">
          <mxGeometry x="99.5" y="10" width="180" height="50" as="geometry" />
        </mxCell>
        <mxCell id="9xvX5aYy29unOBB1nH0w-16" style="edgeStyle=orthogonalEdgeStyle;rounded=0;orthogonalLoop=1;jettySize=auto;html=1;exitX=1;exitY=0;exitDx=0;exitDy=0;entryX=0;entryY=0.5;entryDx=0;entryDy=0;curved=1;" parent="DYolzxln7jAGXBVzfGWy-4" source="v0YyFfMFPHar8UtoXrKx-142" target="9xvX5aYy29unOBB1nH0w-15" edge="1">
          <mxGeometry relative="1" as="geometry">
            <Array as="points">
              <mxPoint x="310" y="390" />
              <mxPoint x="310" y="260" />
            </Array>
          </mxGeometry>
        </mxCell>
        <mxCell id="9xvX5aYy29unOBB1nH0w-5" style="edgeStyle=orthogonalEdgeStyle;rounded=0;orthogonalLoop=1;jettySize=auto;html=1;exitX=1.002;exitY=0.8;exitDx=0;exitDy=0;entryX=0;entryY=0.5;entryDx=0;entryDy=0;curved=1;exitPerimeter=0;" parent="DYolzxln7jAGXBVzfGWy-4" source="v0YyFfMFPHar8UtoXrKx-142" target="dDd5OGA8RlVPMjsbOSa7-224" edge="1">
          <mxGeometry relative="1" as="geometry">
            <Array as="points">
              <mxPoint x="320" y="430" />
              <mxPoint x="320" y="420" />
            </Array>
          </mxGeometry>
        </mxCell>
        <mxCell id="dDd5OGA8RlVPMjsbOSa7-258" style="edgeStyle=orthogonalEdgeStyle;rounded=0;orthogonalLoop=1;jettySize=auto;html=1;exitX=0;exitY=0.5;exitDx=0;exitDy=0;entryX=0.5;entryY=0;entryDx=0;entryDy=0;" parent="DYolzxln7jAGXBVzfGWy-4" source="dDd5OGA8RlVPMjsbOSa7-255" target="v0YyFfMFPHar8UtoXrKx-146" edge="1">
          <mxGeometry relative="1" as="geometry" />
        </mxCell>
        <mxCell id="MPz2nJt2sgB7jwvgVszr-1" value="&lt;code data-end=&quot;301&quot; data-start=&quot;288&quot;&gt;Storyteller&lt;/code&gt;" style="rounded=1;whiteSpace=wrap;html=1;" parent="1" vertex="1">
          <mxGeometry x="80" y="10" width="120" height="60" as="geometry" />
        </mxCell>
        <mxCell id="MPz2nJt2sgB7jwvgVszr-2" value="&lt;div&gt;IncidentQueue incidentQueue&lt;/div&gt;&lt;div&gt;StorytellerTick -&amp;gt; incidentQueue.IncidentQueueTick();&lt;/div&gt;" style="rounded=0;whiteSpace=wrap;html=1;" parent="1" vertex="1">
          <mxGeometry x="170" y="100" width="220" height="60" as="geometry" />
        </mxCell>
        <mxCell id="MPz2nJt2sgB7jwvgVszr-24" value="" style="edgeStyle=orthogonalEdgeStyle;rounded=0;orthogonalLoop=1;jettySize=auto;html=1;" parent="1" source="MPz2nJt2sgB7jwvgVszr-3" target="MPz2nJt2sgB7jwvgVszr-23" edge="1">
          <mxGeometry relative="1" as="geometry" />
        </mxCell>
        <mxCell id="MPz2nJt2sgB7jwvgVszr-3" value="&lt;div&gt;FiringIncident&lt;/div&gt;&lt;div&gt;&lt;br&gt;&lt;/div&gt;&lt;div&gt;IncidentDef def;&lt;/div&gt;&lt;div&gt;IncidentParms parms;&lt;/div&gt;&lt;div&gt;StorytellerComp source;&lt;/div&gt;&lt;div&gt;QuestPart sourceQuestPart;&lt;/div&gt;" style="rounded=0;whiteSpace=wrap;html=1;" parent="1" vertex="1">
          <mxGeometry x="50" y="200" width="180" height="160" as="geometry" />
        </mxCell>
        <mxCell id="MPz2nJt2sgB7jwvgVszr-4" value="" style="endArrow=classic;html=1;rounded=0;exitX=0.75;exitY=1;exitDx=0;exitDy=0;entryX=0.25;entryY=0;entryDx=0;entryDy=0;" parent="1" source="MPz2nJt2sgB7jwvgVszr-1" target="MPz2nJt2sgB7jwvgVszr-2" edge="1">
          <mxGeometry width="50" height="50" relative="1" as="geometry">
            <mxPoint x="320" y="290" as="sourcePoint" />
            <mxPoint x="370" y="240" as="targetPoint" />
          </mxGeometry>
        </mxCell>
        <mxCell id="MPz2nJt2sgB7jwvgVszr-5" value="" style="endArrow=classic;html=1;rounded=0;exitX=0.5;exitY=1;exitDx=0;exitDy=0;entryX=0.5;entryY=0;entryDx=0;entryDy=0;" parent="1" source="MPz2nJt2sgB7jwvgVszr-1" target="MPz2nJt2sgB7jwvgVszr-3" edge="1">
          <mxGeometry width="50" height="50" relative="1" as="geometry">
            <mxPoint x="90" y="170" as="sourcePoint" />
            <mxPoint x="140" y="120" as="targetPoint" />
          </mxGeometry>
        </mxCell>
        <mxCell id="MPz2nJt2sgB7jwvgVszr-6" value="" style="endArrow=classic;html=1;rounded=0;exitX=0.25;exitY=1;exitDx=0;exitDy=0;entryX=0.75;entryY=0;entryDx=0;entryDy=0;" parent="1" source="MPz2nJt2sgB7jwvgVszr-2" target="MPz2nJt2sgB7jwvgVszr-3" edge="1">
          <mxGeometry width="50" height="50" relative="1" as="geometry">
            <mxPoint x="230" y="270" as="sourcePoint" />
            <mxPoint x="280" y="220" as="targetPoint" />
          </mxGeometry>
        </mxCell>
        <mxCell id="MPz2nJt2sgB7jwvgVszr-7" value="&lt;div&gt;Incidents can be queued.&lt;/div&gt;&lt;div&gt;List is sorted by FireTick, the last in the list is the first to be executed.&lt;/div&gt;&lt;div&gt;&lt;span style=&quot;background-color: transparent; color: light-dark(rgb(0, 0, 0), rgb(255, 255, 255));&quot;&gt;Reason - to safely remove from the list after fired&lt;/span&gt;&lt;/div&gt;" style="text;html=1;align=left;verticalAlign=top;whiteSpace=wrap;rounded=0;labelPosition=center;verticalLabelPosition=middle;" parent="1" vertex="1">
          <mxGeometry x="400" y="100" width="380" height="50" as="geometry" />
        </mxCell>
        <mxCell id="MPz2nJt2sgB7jwvgVszr-22" value="" style="edgeStyle=orthogonalEdgeStyle;rounded=0;orthogonalLoop=1;jettySize=auto;html=1;entryX=0.99;entryY=0.341;entryDx=0;entryDy=0;entryPerimeter=0;exitX=0;exitY=0.75;exitDx=0;exitDy=0;" parent="1" source="MPz2nJt2sgB7jwvgVszr-8" target="MPz2nJt2sgB7jwvgVszr-3" edge="1">
          <mxGeometry relative="1" as="geometry">
            <Array as="points">
              <mxPoint x="240" y="240" />
              <mxPoint x="240" y="255" />
            </Array>
          </mxGeometry>
        </mxCell>
        <mxCell id="MPz2nJt2sgB7jwvgVszr-8" value="&lt;div&gt;IncidentDef&lt;/div&gt;&lt;div&gt;&lt;br&gt;&lt;/div&gt;&lt;div&gt;Loaded from XML&lt;/div&gt;&lt;div&gt;string defName -&amp;gt; &quot;RaidEnemy&quot;&lt;/div&gt;&lt;div&gt;Type workerClass -&amp;gt; &quot;IncidentWorker_RaidEnemy&quot;&lt;/div&gt;" style="rounded=0;whiteSpace=wrap;html=1;verticalAlign=top;fontSize=12;" parent="1" vertex="1">
          <mxGeometry x="260" y="180" width="280" height="80" as="geometry" />
        </mxCell>
        <mxCell id="MPz2nJt2sgB7jwvgVszr-10" value="&lt;div align=&quot;left&quot;&gt;Defines the worker class, which then will be responsible for incident execution.&lt;/div&gt;" style="text;html=1;align=left;verticalAlign=top;whiteSpace=wrap;rounded=0;labelPosition=center;verticalLabelPosition=middle;" parent="1" vertex="1">
          <mxGeometry x="550" y="180" width="250" height="50" as="geometry" />
        </mxCell>
        <mxCell id="MPz2nJt2sgB7jwvgVszr-21" value="" style="edgeStyle=orthogonalEdgeStyle;rounded=0;orthogonalLoop=1;jettySize=auto;html=1;exitX=0;exitY=0.25;exitDx=0;exitDy=0;" parent="1" source="MPz2nJt2sgB7jwvgVszr-13" target="MPz2nJt2sgB7jwvgVszr-3" edge="1">
          <mxGeometry relative="1" as="geometry" />
        </mxCell>
        <mxCell id="MPz2nJt2sgB7jwvgVszr-13" value="&lt;div&gt;IncidentParms&lt;/div&gt;&lt;div&gt;&lt;br&gt;&lt;/div&gt;&lt;div&gt;IIncidentTarget target -&amp;gt; Map-0-PlayerHome&lt;/div&gt;&lt;div&gt;float points&lt;/div&gt;&lt;div&gt;Faction faction&lt;/div&gt;&lt;div&gt;RaidStrategyDef raidStrategy&lt;/div&gt;" style="rounded=0;whiteSpace=wrap;html=1;verticalAlign=top;" parent="1" vertex="1">
          <mxGeometry x="260" y="270" width="280" height="100" as="geometry" />
        </mxCell>
        <mxCell id="MPz2nJt2sgB7jwvgVszr-18" value="&lt;div&gt;Partially populated by Storyteller (comps) - only general info (points, target, mb faction).&lt;/div&gt;&lt;div&gt;&lt;br&gt;&lt;/div&gt;&lt;div&gt;Then populated by worker.&lt;/div&gt;" style="text;html=1;align=left;verticalAlign=top;whiteSpace=wrap;rounded=0;" parent="1" vertex="1">
          <mxGeometry x="550" y="270" width="260" height="80" as="geometry" />
        </mxCell>
        <mxCell id="MPz2nJt2sgB7jwvgVszr-26" value="" style="edgeStyle=orthogonalEdgeStyle;rounded=0;orthogonalLoop=1;jettySize=auto;html=1;" parent="1" source="MPz2nJt2sgB7jwvgVszr-23" target="MPz2nJt2sgB7jwvgVszr-25" edge="1">
          <mxGeometry relative="1" as="geometry" />
        </mxCell>
        <mxCell id="MPz2nJt2sgB7jwvgVszr-23" value="&lt;div&gt;Storyteller.TryFire&lt;/div&gt;&lt;div&gt;&lt;br&gt;&lt;/div&gt;&lt;div&gt;Worker.CanFire (base IncidentWorker) -&amp;gt; check&lt;/div&gt;&lt;div&gt;Worker.TryExecute (base IncidentWorker) -&amp;gt; do Job&lt;/div&gt;&lt;div&gt;&lt;br&gt;&lt;/div&gt;&lt;div&gt;&lt;br&gt;&lt;/div&gt;" style="whiteSpace=wrap;html=1;rounded=0;verticalAlign=top;" parent="1" vertex="1">
          <mxGeometry x="40" y="400" width="280" height="70" as="geometry" />
        </mxCell>
        <mxCell id="MPz2nJt2sgB7jwvgVszr-49" value="" style="edgeStyle=orthogonalEdgeStyle;rounded=0;orthogonalLoop=1;jettySize=auto;html=1;" parent="1" source="MPz2nJt2sgB7jwvgVszr-25" target="MPz2nJt2sgB7jwvgVszr-47" edge="1">
          <mxGeometry relative="1" as="geometry" />
        </mxCell>
        <mxCell id="MPz2nJt2sgB7jwvgVszr-25" value="IncidentWorker.TryExecute (base)" style="whiteSpace=wrap;html=1;verticalAlign=top;rounded=0;" parent="1" vertex="1">
          <mxGeometry x="80" y="500" width="200" height="60" as="geometry" />
        </mxCell>
        <mxCell id="MPz2nJt2sgB7jwvgVszr-27" value="&lt;div&gt;Storeteller fires the incident.&lt;/div&gt;&lt;div&gt;Base&amp;nbsp;IncidentWorker instance executes these 2 methods.&lt;/div&gt;" style="text;html=1;align=left;verticalAlign=top;whiteSpace=wrap;rounded=0;" parent="1" vertex="1">
          <mxGeometry x="360" y="400" width="260" height="70" as="geometry" />
        </mxCell>
        <mxCell id="MPz2nJt2sgB7jwvgVszr-32" value="&lt;div&gt;Executed by base&amp;nbsp;IncidentWorker&lt;/div&gt;&lt;div&gt;Calls TryExecuteWorker, which then executed by specific child&lt;/div&gt;" style="text;html=1;align=left;verticalAlign=top;whiteSpace=wrap;rounded=0;" parent="1" vertex="1">
          <mxGeometry x="320" y="490" width="260" height="50" as="geometry" />
        </mxCell>
        <mxCell id="MPz2nJt2sgB7jwvgVszr-33" value="&lt;div&gt;Store records&lt;/div&gt;&lt;div&gt;Notify storyteller, that it was executed&lt;/div&gt;" style="whiteSpace=wrap;html=1;verticalAlign=top;rounded=0;" parent="1" vertex="1">
          <mxGeometry x="320" y="665" width="210" height="60" as="geometry" />
        </mxCell>
        <mxCell id="MPz2nJt2sgB7jwvgVszr-39" value="If successfull, store the record" style="text;html=1;align=left;verticalAlign=top;whiteSpace=wrap;rounded=0;" parent="1" vertex="1">
          <mxGeometry x="540" y="665" width="220" height="50" as="geometry" />
        </mxCell>
        <mxCell id="MPz2nJt2sgB7jwvgVszr-40" value="TryExecuteWorker" style="rhombus;whiteSpace=wrap;html=1;" parent="1" vertex="1">
          <mxGeometry x="110" y="670" width="140" height="50" as="geometry" />
        </mxCell>
        <mxCell id="MPz2nJt2sgB7jwvgVszr-43" value="" style="endArrow=classic;html=1;rounded=0;entryX=0;entryY=0.5;entryDx=0;entryDy=0;exitX=1;exitY=0.5;exitDx=0;exitDy=0;" parent="1" source="MPz2nJt2sgB7jwvgVszr-40" target="MPz2nJt2sgB7jwvgVszr-33" edge="1">
          <mxGeometry width="50" height="50" relative="1" as="geometry">
            <mxPoint x="300" y="720" as="sourcePoint" />
            <mxPoint x="350" y="670" as="targetPoint" />
          </mxGeometry>
        </mxCell>
        <mxCell id="MPz2nJt2sgB7jwvgVszr-44" value="true" style="edgeLabel;html=1;align=center;verticalAlign=middle;resizable=0;points=[];" parent="MPz2nJt2sgB7jwvgVszr-43" vertex="1" connectable="0">
          <mxGeometry x="-0.0286" y="-1" relative="1" as="geometry">
            <mxPoint as="offset" />
          </mxGeometry>
        </mxCell>
        <mxCell id="MPz2nJt2sgB7jwvgVszr-53" value="" style="edgeStyle=orthogonalEdgeStyle;rounded=0;orthogonalLoop=1;jettySize=auto;html=1;" parent="1" source="MPz2nJt2sgB7jwvgVszr-47" target="MPz2nJt2sgB7jwvgVszr-40" edge="1">
          <mxGeometry relative="1" as="geometry" />
        </mxCell>
        <mxCell id="MPz2nJt2sgB7jwvgVszr-47" value="TryExecuteWorker" style="shape=process;whiteSpace=wrap;html=1;backgroundOutline=1;" parent="1" vertex="1">
          <mxGeometry x="113" y="584.5" width="134" height="60" as="geometry" />
        </mxCell>
        <mxCell id="MPz2nJt2sgB7jwvgVszr-54" value="Implemented by each Worker." style="text;html=1;align=left;verticalAlign=top;whiteSpace=wrap;rounded=0;" parent="1" vertex="1">
          <mxGeometry x="270" y="585" width="260" height="50" as="geometry" />
        </mxCell>
        <mxCell id="v0YyFfMFPHar8UtoXrKx-1" value="&lt;font style=&quot;font-size: 21px;&quot;&gt;IncidentWorker&lt;/font&gt;" style="rounded=1;whiteSpace=wrap;html=1;" parent="1" vertex="1">
          <mxGeometry x="-340" y="780" width="200" height="60" as="geometry" />
        </mxCell>
        <mxCell id="v0YyFfMFPHar8UtoXrKx-23" value="" style="edgeStyle=orthogonalEdgeStyle;rounded=0;orthogonalLoop=1;jettySize=auto;html=1;shape=flexArrow;" parent="1" source="v0YyFfMFPHar8UtoXrKx-4" target="v0YyFfMFPHar8UtoXrKx-22" edge="1">
          <mxGeometry relative="1" as="geometry" />
        </mxCell>
        <mxCell id="v0YyFfMFPHar8UtoXrKx-4" value="&lt;font style=&quot;font-size: 21px;&quot;&gt;IncidentWorker_PawnsArrive&lt;/font&gt;" style="rounded=1;whiteSpace=wrap;html=1;" parent="1" vertex="1">
          <mxGeometry x="160" y="780" width="290" height="60" as="geometry" />
        </mxCell>
        <mxCell id="v0YyFfMFPHar8UtoXrKx-15" value="" style="shape=flexArrow;endArrow=classic;html=1;rounded=0;exitX=1;exitY=0.5;exitDx=0;exitDy=0;entryX=0;entryY=0.5;entryDx=0;entryDy=0;" parent="1" source="v0YyFfMFPHar8UtoXrKx-1" target="v0YyFfMFPHar8UtoXrKx-4" edge="1">
          <mxGeometry width="50" height="50" relative="1" as="geometry">
            <mxPoint x="210" y="800" as="sourcePoint" />
            <mxPoint x="260" y="750" as="targetPoint" />
          </mxGeometry>
        </mxCell>
        <mxCell id="v0YyFfMFPHar8UtoXrKx-154" value="" style="edgeStyle=orthogonalEdgeStyle;rounded=0;orthogonalLoop=1;jettySize=auto;html=1;shape=flexArrow;" parent="1" source="v0YyFfMFPHar8UtoXrKx-22" target="v0YyFfMFPHar8UtoXrKx-153" edge="1">
          <mxGeometry relative="1" as="geometry" />
        </mxCell>
        <mxCell id="v0YyFfMFPHar8UtoXrKx-22" value="&lt;font&gt;IncidentWorker_Raid&lt;/font&gt;" style="rounded=1;whiteSpace=wrap;html=1;fontSize=21;" parent="1" vertex="1">
          <mxGeometry x="560" y="780" width="660" height="60" as="geometry" />
        </mxCell>
        <mxCell id="v0YyFfMFPHar8UtoXrKx-25" value="&lt;div&gt;&lt;i&gt;&lt;b&gt;&lt;font style=&quot;color: rgb(51, 51, 255);&quot;&gt;Virtual&lt;/font&gt;&lt;/b&gt;&lt;/i&gt;&lt;/div&gt;MustHaveSettlementOnLayer&lt;div&gt;FactionCanBeGroupSource&lt;/div&gt;" style="rounded=0;whiteSpace=wrap;html=1;" parent="1" vertex="1">
          <mxGeometry x="160" y="850" width="200" height="50" as="geometry" />
        </mxCell>
        <mxCell id="v0YyFfMFPHar8UtoXrKx-26" value="&lt;i&gt;&lt;b&gt;&lt;font style=&quot;color: rgb(204, 0, 204);&quot;&gt;Abstract&lt;/font&gt;&lt;/b&gt;&lt;/i&gt;&lt;div&gt;Must be implemented by children&lt;/div&gt;&lt;div&gt;&lt;br&gt;&lt;div&gt;&lt;b&gt;TryResolveRaidFaction&lt;/b&gt;&lt;/div&gt;&lt;div&gt;Pick/validate faction&lt;/div&gt;&lt;div&gt;&lt;br&gt;&lt;/div&gt;&lt;div&gt;&lt;b&gt;ResolveRaidStrategy&lt;/b&gt;&lt;/div&gt;&lt;/div&gt;&lt;div&gt;(ImmediateAttack)&lt;/div&gt;&lt;div&gt;&lt;br&gt;&lt;/div&gt;&lt;div&gt;&lt;b&gt;GetLetterLabel&lt;/b&gt;&lt;/div&gt;&lt;div&gt;&lt;b&gt;GetLetterText&lt;/b&gt;&lt;/div&gt;&lt;div&gt;&lt;b&gt;GetLetterDef&lt;/b&gt;&lt;/div&gt;&lt;div&gt;&lt;b&gt;GetRelatedPawnsInfoLetterText&lt;/b&gt;&lt;/div&gt;&lt;div&gt;Notification for player&lt;/div&gt;&lt;div&gt;&lt;br&gt;&lt;/div&gt;&lt;div&gt;&lt;b&gt;ResolveRaidPoints&lt;/b&gt;&lt;/div&gt;&lt;div&gt;Finalize base points&lt;/div&gt;" style="rounded=0;whiteSpace=wrap;html=1;verticalAlign=middle;" parent="1" vertex="1">
          <mxGeometry x="560" y="850" width="200" height="260" as="geometry" />
        </mxCell>
        <mxCell id="v0YyFfMFPHar8UtoXrKx-42" value="&lt;div&gt;&lt;i&gt;&lt;b&gt;&lt;font style=&quot;color: rgb(51, 51, 255);&quot;&gt;Virtual&lt;/font&gt;&lt;/b&gt;&lt;/i&gt;&lt;/div&gt;&lt;div&gt;&lt;font style=&quot;color: light-dark(rgb(0, 0, 0), rgb(0, 0, 0));&quot;&gt;&lt;b style=&quot;&quot;&gt;TryResolveRaidArriveMode&lt;/b&gt;&lt;/font&gt;&lt;/div&gt;&lt;div&gt;&lt;font style=&quot;&quot;&gt;&lt;b&gt;ResolveRaidArriveMode&lt;/b&gt;&lt;/font&gt;&lt;/div&gt;&lt;div&gt;&lt;b&gt;ResolveRaidAgeRestriction&lt;/b&gt;&lt;/div&gt;&lt;b&gt;GenerateRaidLoot&lt;/b&gt;&lt;div&gt;&lt;b&gt;PostProcessSpawnedPawns&lt;/b&gt;&lt;/div&gt;" style="rounded=0;whiteSpace=wrap;html=1;" parent="1" vertex="1">
          <mxGeometry x="560" y="1130" width="200" height="100" as="geometry" />
        </mxCell>
        <mxCell id="v0YyFfMFPHar8UtoXrKx-153" value="&lt;font style=&quot;font-size: 21px;&quot;&gt;IncidentWorker_RaidEnemy&lt;/font&gt;" style="whiteSpace=wrap;html=1;fontSize=16;rounded=1;" parent="1" vertex="1">
          <mxGeometry x="1730" y="780" width="800" height="60" as="geometry" />
        </mxCell>
        <mxCell id="v0YyFfMFPHar8UtoXrKx-278" value="" style="group" parent="1" vertex="1" connectable="0">
          <mxGeometry x="1730" y="840" width="220" height="120" as="geometry" />
        </mxCell>
        <mxCell id="v0YyFfMFPHar8UtoXrKx-277" value="" style="rounded=0;whiteSpace=wrap;html=1;fillColor=#f5f5f5;fontColor=#333333;strokeColor=#666666;" parent="v0YyFfMFPHar8UtoXrKx-278" vertex="1">
          <mxGeometry y="10" width="220" height="110" as="geometry" />
        </mxCell>
        <mxCell id="v0YyFfMFPHar8UtoXrKx-286" style="edgeStyle=orthogonalEdgeStyle;rounded=0;orthogonalLoop=1;jettySize=auto;html=1;exitX=0.5;exitY=0.5;exitDx=0;exitDy=20;exitPerimeter=0;" parent="v0YyFfMFPHar8UtoXrKx-278" source="v0YyFfMFPHar8UtoXrKx-239" target="v0YyFfMFPHar8UtoXrKx-275" edge="1">
          <mxGeometry relative="1" as="geometry" />
        </mxCell>
        <mxCell id="v0YyFfMFPHar8UtoXrKx-239" value="&lt;font color=&quot;#cc00cc&quot;&gt;&lt;b&gt;ResolveRaidPoints&lt;/b&gt;&lt;/font&gt;&lt;div style=&quot;text-align: right;&quot;&gt;&lt;font style=&quot;color: rgb(0, 0, 0);&quot;&gt;=&amp;gt; parms.points&lt;/font&gt;&lt;/div&gt;" style="html=1;dashed=0;whiteSpace=wrap;shape=mxgraph.dfd.start" parent="v0YyFfMFPHar8UtoXrKx-278" vertex="1">
          <mxGeometry x="12.22" y="20" width="195.56" height="40" as="geometry" />
        </mxCell>
        <mxCell id="v0YyFfMFPHar8UtoXrKx-275" value="Check if points &amp;gt; 0f&lt;div&gt;Draw back: set default&lt;/div&gt;" style="whiteSpace=wrap;html=1;dashed=0;" parent="v0YyFfMFPHar8UtoXrKx-278" vertex="1">
          <mxGeometry x="24.444444444444446" y="80" width="171.11111111111111" height="30" as="geometry" />
        </mxCell>
        <mxCell id="v0YyFfMFPHar8UtoXrKx-287" value="" style="group" parent="1" vertex="1" connectable="0">
          <mxGeometry x="1730" y="980" width="220" height="200" as="geometry" />
        </mxCell>
        <mxCell id="v0YyFfMFPHar8UtoXrKx-219" value="" style="rounded=0;whiteSpace=wrap;html=1;fillColor=#f5f5f5;fontColor=#333333;strokeColor=#666666;" parent="v0YyFfMFPHar8UtoXrKx-287" vertex="1">
          <mxGeometry width="220" height="200" as="geometry" />
        </mxCell>
        <mxCell id="v0YyFfMFPHar8UtoXrKx-216" style="edgeStyle=orthogonalEdgeStyle;rounded=0;orthogonalLoop=1;jettySize=auto;html=1;exitX=0.5;exitY=0.5;exitDx=0;exitDy=15.000000000000002;exitPerimeter=0;" parent="v0YyFfMFPHar8UtoXrKx-287" source="v0YyFfMFPHar8UtoXrKx-204" target="v0YyFfMFPHar8UtoXrKx-210" edge="1">
          <mxGeometry relative="1" as="geometry" />
        </mxCell>
        <mxCell id="v0YyFfMFPHar8UtoXrKx-204" value="&lt;b&gt;&lt;font style=&quot;color: rgb(204, 0, 204);&quot;&gt;TryResolveRaidFaction&lt;/font&gt;&lt;/b&gt;&lt;div style=&quot;text-align: right;&quot;&gt;&lt;span style=&quot;background-color: transparent;&quot;&gt;=&amp;gt;&amp;nbsp;parms.faction&lt;/span&gt;&lt;/div&gt;&lt;div style=&quot;text-align: right;&quot;&gt;-&amp;gt; bool&lt;span style=&quot;background-color: transparent;&quot;&gt;&lt;/span&gt;&lt;/div&gt;" style="html=1;dashed=0;whiteSpace=wrap;shape=mxgraph.dfd.start" parent="v0YyFfMFPHar8UtoXrKx-287" vertex="1">
          <mxGeometry x="20" y="10" width="180" height="50" as="geometry" />
        </mxCell>
        <mxCell id="v0YyFfMFPHar8UtoXrKx-218" style="edgeStyle=orthogonalEdgeStyle;rounded=0;orthogonalLoop=1;jettySize=auto;html=1;exitX=0.5;exitY=1;exitDx=0;exitDy=0;" parent="v0YyFfMFPHar8UtoXrKx-287" source="v0YyFfMFPHar8UtoXrKx-208" target="v0YyFfMFPHar8UtoXrKx-215" edge="1">
          <mxGeometry relative="1" as="geometry" />
        </mxCell>
        <mxCell id="v0YyFfMFPHar8UtoXrKx-208" value="Else, GetRandom: normal conditions" style="whiteSpace=wrap;html=1;rounded=0;" parent="v0YyFfMFPHar8UtoXrKx-287" vertex="1">
          <mxGeometry x="10" y="130" width="200" height="20" as="geometry" />
        </mxCell>
        <mxCell id="v0YyFfMFPHar8UtoXrKx-217" style="edgeStyle=orthogonalEdgeStyle;rounded=0;orthogonalLoop=1;jettySize=auto;html=1;exitX=0.5;exitY=1;exitDx=0;exitDy=0;" parent="v0YyFfMFPHar8UtoXrKx-287" source="v0YyFfMFPHar8UtoXrKx-210" target="v0YyFfMFPHar8UtoXrKx-208" edge="1">
          <mxGeometry relative="1" as="geometry" />
        </mxCell>
        <mxCell id="v0YyFfMFPHar8UtoXrKx-210" value="If set, check hostile" style="rounded=0;whiteSpace=wrap;html=1;" parent="v0YyFfMFPHar8UtoXrKx-287" vertex="1">
          <mxGeometry x="50" y="80" width="120" height="30" as="geometry" />
        </mxCell>
        <mxCell id="v0YyFfMFPHar8UtoXrKx-215" value="Else, GetRandom: desperate" style="whiteSpace=wrap;html=1;rounded=0;" parent="v0YyFfMFPHar8UtoXrKx-287" vertex="1">
          <mxGeometry x="10" y="170" width="200" height="20" as="geometry" />
        </mxCell>
        <mxCell id="v0YyFfMFPHar8UtoXrKx-288" value="" style="group" parent="1" vertex="1" connectable="0">
          <mxGeometry x="2030" y="1330" width="260" height="170" as="geometry" />
        </mxCell>
        <mxCell id="v0YyFfMFPHar8UtoXrKx-231" value="" style="rounded=0;whiteSpace=wrap;html=1;fillColor=#f5f5f5;fontColor=#333333;strokeColor=#666666;" parent="v0YyFfMFPHar8UtoXrKx-288" vertex="1">
          <mxGeometry width="260" height="170" as="geometry" />
        </mxCell>
        <mxCell id="v0YyFfMFPHar8UtoXrKx-230" style="edgeStyle=orthogonalEdgeStyle;rounded=0;orthogonalLoop=1;jettySize=auto;html=1;exitX=0.5;exitY=0.5;exitDx=0;exitDy=15.000000000000002;exitPerimeter=0;" parent="v0YyFfMFPHar8UtoXrKx-288" source="v0YyFfMFPHar8UtoXrKx-227" target="v0YyFfMFPHar8UtoXrKx-229" edge="1">
          <mxGeometry relative="1" as="geometry" />
        </mxCell>
        <mxCell id="v0YyFfMFPHar8UtoXrKx-227" value="&lt;font style=&quot;color: rgb(51, 51, 255);&quot;&gt;&lt;b&gt;ResolveRaidAgeRestriction&lt;/b&gt;&lt;/font&gt;&lt;div style=&quot;text-align: right;&quot;&gt;&lt;font style=&quot;color: rgb(0, 0, 0);&quot;&gt;&lt;font&gt;=&amp;gt;&amp;nbsp;&lt;/font&gt;&lt;span style=&quot;background-color: transparent;&quot;&gt;parms.raidAgeRestriction&lt;/span&gt;&lt;/font&gt;&lt;/div&gt;" style="html=1;dashed=0;whiteSpace=wrap;shape=mxgraph.dfd.start" parent="v0YyFfMFPHar8UtoXrKx-288" vertex="1">
          <mxGeometry x="30" y="10" width="200" height="39" as="geometry" />
        </mxCell>
        <mxCell id="v0YyFfMFPHar8UtoXrKx-233" style="edgeStyle=orthogonalEdgeStyle;rounded=0;orthogonalLoop=1;jettySize=auto;html=1;exitX=0.5;exitY=1;exitDx=0;exitDy=0;" parent="v0YyFfMFPHar8UtoXrKx-288" source="v0YyFfMFPHar8UtoXrKx-229" target="v0YyFfMFPHar8UtoXrKx-232" edge="1">
          <mxGeometry relative="1" as="geometry" />
        </mxCell>
        <mxCell id="v0YyFfMFPHar8UtoXrKx-229" value="&lt;b&gt;CanUseWith&lt;/b&gt;&lt;br&gt;&lt;div&gt;&lt;span style=&quot;background-color: transparent; color: light-dark(rgb(0, 0, 0), rgb(255, 255, 255));&quot;&gt;RaidAgeRestrictionDefOf.Children.Worker&lt;/span&gt;&lt;/div&gt;" style="shape=process;whiteSpace=wrap;html=1;backgroundOutline=1;fillColor=#d5e8d4;strokeColor=#82b366;size=0.038461538461538464;" parent="v0YyFfMFPHar8UtoXrKx-288" vertex="1">
          <mxGeometry x="10" y="69" width="240" height="51" as="geometry" />
        </mxCell>
        <mxCell id="v0YyFfMFPHar8UtoXrKx-232" value="Chance" style="whiteSpace=wrap;html=1;dashed=0;" parent="v0YyFfMFPHar8UtoXrKx-288" vertex="1">
          <mxGeometry x="70" y="140" width="120" height="20" as="geometry" />
        </mxCell>
        <mxCell id="v0YyFfMFPHar8UtoXrKx-313" value="&lt;font color=&quot;#cc00cc&quot;&gt;&lt;b&gt;GetLetterLabel&lt;/b&gt;&lt;/font&gt;&lt;br&gt;&lt;div style=&quot;text-align: right;&quot;&gt;&lt;font style=&quot;color: rgb(0, 0, 0);&quot;&gt;&lt;font&gt;-&amp;gt;&amp;nbsp;&lt;/font&gt;&lt;span style=&quot;background-color: transparent;&quot;&gt;string&lt;/span&gt;&lt;/font&gt;&lt;/div&gt;" style="html=1;dashed=0;whiteSpace=wrap;shape=mxgraph.dfd.start" parent="1" vertex="1">
          <mxGeometry x="2030" y="1550" width="180" height="40" as="geometry" />
        </mxCell>
        <mxCell id="v0YyFfMFPHar8UtoXrKx-315" value="&lt;font color=&quot;#cc00cc&quot;&gt;&lt;b&gt;GetLetterText&lt;/b&gt;&lt;/font&gt;&lt;br&gt;&lt;div style=&quot;text-align: right;&quot;&gt;&lt;font style=&quot;color: rgb(0, 0, 0);&quot;&gt;&lt;font&gt;-&amp;gt;&amp;nbsp;&lt;/font&gt;&lt;span style=&quot;background-color: transparent;&quot;&gt;string&lt;/span&gt;&lt;/font&gt;&lt;/div&gt;" style="html=1;dashed=0;whiteSpace=wrap;shape=mxgraph.dfd.start" parent="1" vertex="1">
          <mxGeometry x="2030" y="1600" width="180" height="40" as="geometry" />
        </mxCell>
        <mxCell id="v0YyFfMFPHar8UtoXrKx-316" value="&lt;font color=&quot;#cc00cc&quot;&gt;&lt;b&gt;GetLetterDef&lt;/b&gt;&lt;/font&gt;&lt;br&gt;&lt;div style=&quot;text-align: right;&quot;&gt;&lt;font style=&quot;color: rgb(0, 0, 0);&quot;&gt;&lt;font&gt;-&amp;gt;&amp;nbsp;&lt;/font&gt;&lt;/font&gt;&lt;span style=&quot;background-color: transparent;&quot;&gt;LetterDefOf.ThreatBig&lt;/span&gt;&lt;/div&gt;" style="html=1;dashed=0;whiteSpace=wrap;shape=mxgraph.dfd.start" parent="1" vertex="1">
          <mxGeometry x="2030" y="1650" width="180" height="40" as="geometry" />
        </mxCell>
        <mxCell id="v0YyFfMFPHar8UtoXrKx-317" value="&lt;font color=&quot;#cc00cc&quot;&gt;&lt;b&gt;GetRelatedPawnsInfoLetterText&lt;/b&gt;&lt;/font&gt;&lt;br&gt;&lt;div style=&quot;text-align: right;&quot;&gt;&lt;font style=&quot;color: rgb(0, 0, 0);&quot;&gt;&lt;font&gt;-&amp;gt;&amp;nbsp;&lt;/font&gt;&lt;/font&gt;&lt;span style=&quot;background-color: transparent;&quot;&gt;string&lt;/span&gt;&lt;/div&gt;" style="html=1;dashed=0;whiteSpace=wrap;shape=mxgraph.dfd.start" parent="1" vertex="1">
          <mxGeometry x="2030" y="1700" width="200" height="40" as="geometry" />
        </mxCell>
        <mxCell id="v0YyFfMFPHar8UtoXrKx-320" value="" style="group" parent="1" vertex="1" connectable="0">
          <mxGeometry x="1730" y="1200" width="280" height="580" as="geometry" />
        </mxCell>
        <mxCell id="v0YyFfMFPHar8UtoXrKx-311" value="" style="rounded=0;whiteSpace=wrap;html=1;fillColor=#f5f5f5;fontColor=#333333;strokeColor=#666666;" parent="v0YyFfMFPHar8UtoXrKx-320" vertex="1">
          <mxGeometry width="280" height="580" as="geometry" />
        </mxCell>
        <mxCell id="v0YyFfMFPHar8UtoXrKx-238" style="edgeStyle=orthogonalEdgeStyle;rounded=0;orthogonalLoop=1;jettySize=auto;html=1;exitX=0.5;exitY=0.5;exitDx=0;exitDy=15;exitPerimeter=0;" parent="v0YyFfMFPHar8UtoXrKx-320" source="v0YyFfMFPHar8UtoXrKx-235" target="v0YyFfMFPHar8UtoXrKx-236" edge="1">
          <mxGeometry relative="1" as="geometry" />
        </mxCell>
        <mxCell id="v0YyFfMFPHar8UtoXrKx-235" value="&lt;font style=&quot;color: rgb(204, 0, 204);&quot;&gt;&lt;b&gt;ResolveRaidStrategy&lt;/b&gt;&lt;/font&gt;&lt;div style=&quot;text-align: right;&quot;&gt;&lt;font style=&quot;color: rgb(0, 0, 0);&quot;&gt;&lt;font&gt;=&amp;gt;&amp;nbsp;&lt;/font&gt;&lt;span style=&quot;background-color: transparent;&quot;&gt;parms.raidStrategy&lt;/span&gt;&lt;/font&gt;&lt;/div&gt;" style="html=1;dashed=0;whiteSpace=wrap;shape=mxgraph.dfd.start" parent="v0YyFfMFPHar8UtoXrKx-320" vertex="1">
          <mxGeometry x="50" y="10" width="180" height="40" as="geometry" />
        </mxCell>
        <mxCell id="v0YyFfMFPHar8UtoXrKx-292" value="" style="edgeStyle=orthogonalEdgeStyle;rounded=0;orthogonalLoop=1;jettySize=auto;html=1;" parent="v0YyFfMFPHar8UtoXrKx-320" source="v0YyFfMFPHar8UtoXrKx-236" target="v0YyFfMFPHar8UtoXrKx-291" edge="1">
          <mxGeometry relative="1" as="geometry" />
        </mxCell>
        <mxCell id="v0YyFfMFPHar8UtoXrKx-236" value="Runs only if null" style="whiteSpace=wrap;html=1;dashed=0;" parent="v0YyFfMFPHar8UtoXrKx-320" vertex="1">
          <mxGeometry x="80" y="70" width="120" height="20" as="geometry" />
        </mxCell>
        <mxCell id="v0YyFfMFPHar8UtoXrKx-319" value="For each" style="rounded=0;whiteSpace=wrap;html=1;fillColor=#fff2cc;strokeColor=#d6b656;align=left;verticalAlign=top;" parent="v0YyFfMFPHar8UtoXrKx-320" vertex="1">
          <mxGeometry x="10" y="161" width="260" height="359" as="geometry" />
        </mxCell>
        <mxCell id="v0YyFfMFPHar8UtoXrKx-294" style="edgeStyle=orthogonalEdgeStyle;rounded=0;orthogonalLoop=1;jettySize=auto;html=1;exitX=0.5;exitY=1;exitDx=0;exitDy=0;" parent="v0YyFfMFPHar8UtoXrKx-320" source="v0YyFfMFPHar8UtoXrKx-291" target="v0YyFfMFPHar8UtoXrKx-293" edge="1">
          <mxGeometry relative="1" as="geometry" />
        </mxCell>
        <mxCell id="v0YyFfMFPHar8UtoXrKx-291" value="Go through all&lt;div&gt;DefDatabase&amp;lt;RaidStrategyDef&amp;gt;&lt;/div&gt;" style="whiteSpace=wrap;html=1;dashed=0;" parent="v0YyFfMFPHar8UtoXrKx-320" vertex="1">
          <mxGeometry x="50" y="110" width="180" height="40" as="geometry" />
        </mxCell>
        <mxCell id="v0YyFfMFPHar8UtoXrKx-298" style="edgeStyle=orthogonalEdgeStyle;rounded=0;orthogonalLoop=1;jettySize=auto;html=1;exitX=0.5;exitY=1;exitDx=0;exitDy=0;" parent="v0YyFfMFPHar8UtoXrKx-320" source="v0YyFfMFPHar8UtoXrKx-293" target="v0YyFfMFPHar8UtoXrKx-296" edge="1">
          <mxGeometry relative="1" as="geometry" />
        </mxCell>
        <mxCell id="v0YyFfMFPHar8UtoXrKx-293" value="&lt;b&gt;CanUseWith&lt;/b&gt;&lt;br&gt;&lt;div&gt;&lt;span style=&quot;background-color: transparent; color: light-dark(rgb(0, 0, 0), rgb(255, 255, 255));&quot;&gt;def.Worker&lt;/span&gt;&lt;/div&gt;" style="shape=process;whiteSpace=wrap;html=1;backgroundOutline=1;fillColor=#d5e8d4;strokeColor=#82b366;size=0.038461538461538464;" parent="v0YyFfMFPHar8UtoXrKx-320" vertex="1">
          <mxGeometry x="80" y="170" width="120" height="51" as="geometry" />
        </mxCell>
        <mxCell id="v0YyFfMFPHar8UtoXrKx-301" style="edgeStyle=orthogonalEdgeStyle;rounded=0;orthogonalLoop=1;jettySize=auto;html=1;exitX=1;exitY=0.5;exitDx=0;exitDy=0;" parent="v0YyFfMFPHar8UtoXrKx-320" source="v0YyFfMFPHar8UtoXrKx-296" target="v0YyFfMFPHar8UtoXrKx-300" edge="1">
          <mxGeometry relative="1" as="geometry" />
        </mxCell>
        <mxCell id="v0YyFfMFPHar8UtoXrKx-303" value="null" style="edgeLabel;html=1;align=center;verticalAlign=middle;resizable=0;points=[];" parent="v0YyFfMFPHar8UtoXrKx-301" vertex="1" connectable="0">
          <mxGeometry x="-0.0433" relative="1" as="geometry">
            <mxPoint y="-25" as="offset" />
          </mxGeometry>
        </mxCell>
        <mxCell id="v0YyFfMFPHar8UtoXrKx-305" style="edgeStyle=orthogonalEdgeStyle;rounded=0;orthogonalLoop=1;jettySize=auto;html=1;exitX=0;exitY=0.5;exitDx=0;exitDy=0;entryX=0.5;entryY=0;entryDx=0;entryDy=0;" parent="v0YyFfMFPHar8UtoXrKx-320" source="v0YyFfMFPHar8UtoXrKx-296" target="v0YyFfMFPHar8UtoXrKx-307" edge="1">
          <mxGeometry relative="1" as="geometry">
            <mxPoint x="140" y="450" as="targetPoint" />
            <Array as="points">
              <mxPoint x="40" y="275" />
              <mxPoint x="40" y="430" />
              <mxPoint x="140" y="430" />
            </Array>
          </mxGeometry>
        </mxCell>
        <mxCell id="v0YyFfMFPHar8UtoXrKx-308" value="set" style="edgeLabel;html=1;align=center;verticalAlign=middle;resizable=0;points=[];" parent="v0YyFfMFPHar8UtoXrKx-305" vertex="1" connectable="0">
          <mxGeometry x="-0.6832" relative="1" as="geometry">
            <mxPoint as="offset" />
          </mxGeometry>
        </mxCell>
        <mxCell id="v0YyFfMFPHar8UtoXrKx-296" value="parms.raidArrivalMode" style="rhombus;whiteSpace=wrap;html=1;" parent="v0YyFfMFPHar8UtoXrKx-320" vertex="1">
          <mxGeometry x="60" y="240" width="160" height="70" as="geometry" />
        </mxCell>
        <mxCell id="v0YyFfMFPHar8UtoXrKx-306" style="edgeStyle=orthogonalEdgeStyle;rounded=0;orthogonalLoop=1;jettySize=auto;html=1;exitX=0.5;exitY=1;exitDx=0;exitDy=0;entryX=0.5;entryY=0;entryDx=0;entryDy=0;" parent="v0YyFfMFPHar8UtoXrKx-320" source="v0YyFfMFPHar8UtoXrKx-300" target="v0YyFfMFPHar8UtoXrKx-307" edge="1">
          <mxGeometry relative="1" as="geometry">
            <mxPoint x="140.03448275862092" y="450" as="targetPoint" />
          </mxGeometry>
        </mxCell>
        <mxCell id="v0YyFfMFPHar8UtoXrKx-300" value="def must have at least 1 arrival mode, whose Worker.CanUseWith returns true" style="whiteSpace=wrap;html=1;dashed=0;" parent="v0YyFfMFPHar8UtoXrKx-320" vertex="1">
          <mxGeometry x="120" y="350" width="140" height="60" as="geometry" />
        </mxCell>
        <mxCell id="v0YyFfMFPHar8UtoXrKx-310" style="edgeStyle=orthogonalEdgeStyle;rounded=0;orthogonalLoop=1;jettySize=auto;html=1;exitX=0.5;exitY=1;exitDx=0;exitDy=0;" parent="v0YyFfMFPHar8UtoXrKx-320" source="v0YyFfMFPHar8UtoXrKx-307" target="v0YyFfMFPHar8UtoXrKx-309" edge="1">
          <mxGeometry relative="1" as="geometry" />
        </mxCell>
        <mxCell id="v0YyFfMFPHar8UtoXrKx-307" value="&lt;b&gt;SelectionWeightForFaction&lt;/b&gt;&lt;br&gt;&lt;div&gt;&lt;span style=&quot;background-color: transparent; color: light-dark(rgb(0, 0, 0), rgb(255, 255, 255));&quot;&gt;def.Worker&lt;/span&gt;&lt;/div&gt;&lt;div&gt;&lt;span style=&quot;background-color: transparent; color: light-dark(rgb(0, 0, 0), rgb(255, 255, 255));&quot;&gt;&lt;br&gt;&lt;/span&gt;&lt;/div&gt;&lt;div&gt;&lt;span style=&quot;background-color: transparent; color: light-dark(rgb(0, 0, 0), rgb(255, 255, 255));&quot;&gt;Set a weight for def&lt;/span&gt;&lt;/div&gt;" style="shape=process;whiteSpace=wrap;html=1;backgroundOutline=1;fillColor=#d5e8d4;strokeColor=#82b366;size=0.038461538461538464;" parent="v0YyFfMFPHar8UtoXrKx-320" vertex="1">
          <mxGeometry x="50" y="450" width="180" height="60" as="geometry" />
        </mxCell>
        <mxCell id="v0YyFfMFPHar8UtoXrKx-309" value="Select random from list based on weight of each" style="whiteSpace=wrap;html=1;dashed=0;" parent="v0YyFfMFPHar8UtoXrKx-320" vertex="1">
          <mxGeometry x="70" y="530" width="140" height="40" as="geometry" />
        </mxCell>
        <mxCell id="v0YyFfMFPHar8UtoXrKx-352" value="" style="group" parent="1" vertex="1" connectable="0">
          <mxGeometry x="2330" y="850" width="200" height="410" as="geometry" />
        </mxCell>
        <mxCell id="v0YyFfMFPHar8UtoXrKx-347" value="" style="rounded=0;whiteSpace=wrap;html=1;fillColor=#f5f5f5;fontColor=#333333;strokeColor=#666666;" parent="v0YyFfMFPHar8UtoXrKx-352" vertex="1">
          <mxGeometry width="200" height="410" as="geometry" />
        </mxCell>
        <mxCell id="v0YyFfMFPHar8UtoXrKx-350" value="&lt;b&gt;DistributeLoot&lt;/b&gt;&lt;br&gt;&lt;div&gt;&lt;span style=&quot;background-color: transparent; color: light-dark(rgb(0, 0, 0), rgb(255, 255, 255));&quot;&gt;new&amp;nbsp;&lt;/span&gt;&lt;span style=&quot;background-color: transparent;&quot;&gt;RaidLootDistributor&lt;/span&gt;&lt;/div&gt;" style="shape=process;whiteSpace=wrap;html=1;backgroundOutline=1;fillColor=#d5e8d4;strokeColor=#82b366;size=0.038461538461538464;" parent="v0YyFfMFPHar8UtoXrKx-352" vertex="1">
          <mxGeometry x="20" y="360" width="160" height="41" as="geometry" />
        </mxCell>
        <mxCell id="v0YyFfMFPHar8UtoXrKx-323" style="edgeStyle=orthogonalEdgeStyle;rounded=0;orthogonalLoop=1;jettySize=auto;html=1;exitX=0.5;exitY=0.5;exitDx=0;exitDy=20;exitPerimeter=0;" parent="v0YyFfMFPHar8UtoXrKx-352" source="v0YyFfMFPHar8UtoXrKx-318" target="v0YyFfMFPHar8UtoXrKx-321" edge="1">
          <mxGeometry relative="1" as="geometry" />
        </mxCell>
        <mxCell id="v0YyFfMFPHar8UtoXrKx-318" value="&lt;font color=&quot;#3333ff&quot;&gt;&lt;b&gt;GenerateRaidLoot&lt;/b&gt;&lt;/font&gt;&lt;div style=&quot;text-align: right;&quot;&gt;&lt;font style=&quot;color: rgb(0, 0, 0);&quot;&gt;distributed&lt;/font&gt;&lt;/div&gt;" style="html=1;dashed=0;whiteSpace=wrap;shape=mxgraph.dfd.start" parent="v0YyFfMFPHar8UtoXrKx-352" vertex="1">
          <mxGeometry x="30" y="10" width="140" height="40" as="geometry" />
        </mxCell>
        <mxCell id="v0YyFfMFPHar8UtoXrKx-326" style="edgeStyle=orthogonalEdgeStyle;rounded=0;orthogonalLoop=1;jettySize=auto;html=1;exitX=0.5;exitY=1;exitDx=0;exitDy=0;" parent="v0YyFfMFPHar8UtoXrKx-352" source="v0YyFfMFPHar8UtoXrKx-321" target="v0YyFfMFPHar8UtoXrKx-324" edge="1">
          <mxGeometry relative="1" as="geometry" />
        </mxCell>
        <mxCell id="v0YyFfMFPHar8UtoXrKx-321" value="Faction has&amp;nbsp;raidLootMaker&lt;div&gt;There are Pawns&lt;/div&gt;" style="whiteSpace=wrap;html=1;dashed=0;" parent="v0YyFfMFPHar8UtoXrKx-352" vertex="1">
          <mxGeometry x="20" y="70" width="160" height="40" as="geometry" />
        </mxCell>
        <mxCell id="v0YyFfMFPHar8UtoXrKx-327" style="edgeStyle=orthogonalEdgeStyle;rounded=0;orthogonalLoop=1;jettySize=auto;html=1;exitX=0.5;exitY=1;exitDx=0;exitDy=0;" parent="v0YyFfMFPHar8UtoXrKx-352" source="v0YyFfMFPHar8UtoXrKx-324" target="v0YyFfMFPHar8UtoXrKx-325" edge="1">
          <mxGeometry relative="1" as="geometry" />
        </mxCell>
        <mxCell id="v0YyFfMFPHar8UtoXrKx-324" value="Scale points by difficulty" style="whiteSpace=wrap;html=1;dashed=0;" parent="v0YyFfMFPHar8UtoXrKx-352" vertex="1">
          <mxGeometry x="20" y="130" width="160" height="20" as="geometry" />
        </mxCell>
        <mxCell id="v0YyFfMFPHar8UtoXrKx-340" style="edgeStyle=orthogonalEdgeStyle;rounded=0;orthogonalLoop=1;jettySize=auto;html=1;exitX=0.5;exitY=1;exitDx=0;exitDy=0;" parent="v0YyFfMFPHar8UtoXrKx-352" source="v0YyFfMFPHar8UtoXrKx-325" target="v0YyFfMFPHar8UtoXrKx-339" edge="1">
          <mxGeometry relative="1" as="geometry" />
        </mxCell>
        <mxCell id="v0YyFfMFPHar8UtoXrKx-325" value="Evaluate the value for this faction based on points" style="whiteSpace=wrap;html=1;dashed=0;" parent="v0YyFfMFPHar8UtoXrKx-352" vertex="1">
          <mxGeometry x="20" y="170" width="160" height="40" as="geometry" />
        </mxCell>
        <mxCell id="v0YyFfMFPHar8UtoXrKx-346" style="edgeStyle=orthogonalEdgeStyle;rounded=0;orthogonalLoop=1;jettySize=auto;html=1;exitX=0.5;exitY=1;exitDx=0;exitDy=0;" parent="v0YyFfMFPHar8UtoXrKx-352" source="v0YyFfMFPHar8UtoXrKx-339" target="v0YyFfMFPHar8UtoXrKx-345" edge="1">
          <mxGeometry relative="1" as="geometry" />
        </mxCell>
        <mxCell id="v0YyFfMFPHar8UtoXrKx-339" value="Scale by raidStrategy.raidLootValueFactor&lt;div&gt;&lt;span style=&quot;background-color: transparent; color: light-dark(rgb(0, 0, 0), rgb(255, 255, 255));&quot;&gt;if&amp;nbsp;&lt;/span&gt;&lt;span style=&quot;background-color: transparent; color: light-dark(rgb(0, 0, 0), rgb(255, 255, 255));&quot;&gt;raidStrategy exists&lt;/span&gt;&lt;/div&gt;" style="whiteSpace=wrap;html=1;dashed=0;" parent="v0YyFfMFPHar8UtoXrKx-352" vertex="1">
          <mxGeometry x="10" y="230" width="180" height="50" as="geometry" />
        </mxCell>
        <mxCell id="v0YyFfMFPHar8UtoXrKx-351" style="edgeStyle=orthogonalEdgeStyle;rounded=0;orthogonalLoop=1;jettySize=auto;html=1;exitX=0.5;exitY=1;exitDx=0;exitDy=0;" parent="v0YyFfMFPHar8UtoXrKx-352" source="v0YyFfMFPHar8UtoXrKx-345" target="v0YyFfMFPHar8UtoXrKx-350" edge="1">
          <mxGeometry relative="1" as="geometry" />
        </mxCell>
        <mxCell id="v0YyFfMFPHar8UtoXrKx-345" value="Generate loot based on market value and faction" style="whiteSpace=wrap;html=1;dashed=0;" parent="v0YyFfMFPHar8UtoXrKx-352" vertex="1">
          <mxGeometry x="20" y="300" width="160" height="40" as="geometry" />
        </mxCell>
        <mxCell id="dDd5OGA8RlVPMjsbOSa7-8" value="" style="group" parent="1" vertex="1" connectable="0">
          <mxGeometry x="-309.97" y="990" width="140" height="140" as="geometry" />
        </mxCell>
        <mxCell id="dDd5OGA8RlVPMjsbOSa7-7" value="" style="rounded=0;whiteSpace=wrap;html=1;fillColor=#f5f5f5;fontColor=#333333;strokeColor=#666666;" parent="dDd5OGA8RlVPMjsbOSa7-8" vertex="1">
          <mxGeometry width="140" height="140" as="geometry" />
        </mxCell>
        <mxCell id="dDd5OGA8RlVPMjsbOSa7-1" style="edgeStyle=orthogonalEdgeStyle;rounded=0;orthogonalLoop=1;jettySize=auto;html=1;exitX=0.5;exitY=0.5;exitDx=0;exitDy=20;exitPerimeter=0;" parent="dDd5OGA8RlVPMjsbOSa7-8" source="v0YyFfMFPHar8UtoXrKx-353" target="v0YyFfMFPHar8UtoXrKx-356" edge="1">
          <mxGeometry relative="1" as="geometry" />
        </mxCell>
        <mxCell id="v0YyFfMFPHar8UtoXrKx-353" value="&lt;div style=&quot;&quot;&gt;&lt;span style=&quot;background-color: transparent; color: light-dark(rgb(0, 0, 0), rgb(255, 255, 255));&quot;&gt;&lt;b&gt;CanFireNow&lt;/b&gt;&lt;/span&gt;&lt;/div&gt;&lt;div style=&quot;text-align: right;&quot;&gt;-&amp;gt; bool&lt;/div&gt;" style="html=1;dashed=0;whiteSpace=wrap;shape=mxgraph.dfd.start;align=center;" parent="dDd5OGA8RlVPMjsbOSa7-8" vertex="1">
          <mxGeometry x="10" y="10" width="120" height="40" as="geometry" />
        </mxCell>
        <mxCell id="dDd5OGA8RlVPMjsbOSa7-9" style="edgeStyle=orthogonalEdgeStyle;rounded=0;orthogonalLoop=1;jettySize=auto;html=1;exitX=0.5;exitY=1;exitDx=0;exitDy=0;" parent="dDd5OGA8RlVPMjsbOSa7-8" source="v0YyFfMFPHar8UtoXrKx-356" target="dDd5OGA8RlVPMjsbOSa7-3" edge="1">
          <mxGeometry relative="1" as="geometry" />
        </mxCell>
        <mxCell id="v0YyFfMFPHar8UtoXrKx-356" value="Basic checks" style="rounded=0;whiteSpace=wrap;html=1;" parent="dDd5OGA8RlVPMjsbOSa7-8" vertex="1">
          <mxGeometry x="20" y="70" width="100" height="20" as="geometry" />
        </mxCell>
        <mxCell id="dDd5OGA8RlVPMjsbOSa7-3" value="&lt;font style=&quot;color: rgb(51, 51, 255);&quot;&gt;&lt;b&gt;CanFireNowSub&lt;/b&gt;&lt;/font&gt;" style="shape=process;whiteSpace=wrap;html=1;backgroundOutline=1;fillColor=#d5e8d4;strokeColor=#82b366;size=0.038461538461538464;" parent="dDd5OGA8RlVPMjsbOSa7-8" vertex="1">
          <mxGeometry x="10" y="110" width="120" height="20" as="geometry" />
        </mxCell>
        <mxCell id="dDd5OGA8RlVPMjsbOSa7-10" value="&lt;div style=&quot;&quot;&gt;&lt;span style=&quot;background-color: transparent; color: light-dark(rgb(0, 0, 0), rgb(255, 255, 255));&quot;&gt;SendIncidentLetter&lt;/span&gt;&lt;/div&gt;&lt;div style=&quot;&quot;&gt;&lt;span style=&quot;background-color: transparent;&quot;&gt;SendStandardLetter&lt;/span&gt;&lt;/div&gt;" style="html=1;dashed=0;whiteSpace=wrap;shape=mxgraph.dfd.start;align=center;" parent="1" vertex="1">
          <mxGeometry x="-310" y="930" width="140" height="40" as="geometry" />
        </mxCell>
        <mxCell id="dDd5OGA8RlVPMjsbOSa7-21" value="&lt;div style=&quot;&quot;&gt;&lt;span style=&quot;background-color: transparent; color: rgb(51, 51, 255);&quot;&gt;&lt;b&gt;CanFireNowSub&lt;/b&gt;&lt;/span&gt;&lt;/div&gt;&lt;div style=&quot;&quot;&gt;&lt;span style=&quot;background-color: transparent;&quot;&gt;&lt;i style=&quot;&quot;&gt;&lt;font style=&quot;color: rgb(0, 0, 0);&quot;&gt;Virtual&lt;/font&gt;&lt;/i&gt;&lt;/span&gt;&lt;/div&gt;&lt;div style=&quot;text-align: right;&quot;&gt;&lt;span style=&quot;background-color: transparent; color: light-dark(rgb(0, 0, 0), rgb(255, 255, 255));&quot;&gt;-&amp;gt; true&lt;/span&gt;&lt;/div&gt;" style="html=1;dashed=0;whiteSpace=wrap;shape=mxgraph.dfd.start;align=center;" parent="1" vertex="1">
          <mxGeometry x="-320" y="1410" width="160" height="50" as="geometry" />
        </mxCell>
        <mxCell id="dDd5OGA8RlVPMjsbOSa7-22" value="&lt;div style=&quot;&quot;&gt;&lt;b style=&quot;color: rgb(51, 51, 255);&quot;&gt;TryExecuteWorker&lt;/b&gt;&lt;/div&gt;&lt;div style=&quot;&quot;&gt;&lt;span style=&quot;background-color: transparent;&quot;&gt;&lt;i style=&quot;&quot;&gt;&lt;font style=&quot;color: rgb(0, 0, 0);&quot;&gt;Virtual&lt;/font&gt;&lt;/i&gt;&lt;/span&gt;&lt;/div&gt;&lt;div style=&quot;text-align: right;&quot;&gt;&lt;span style=&quot;background-color: transparent; color: light-dark(rgb(0, 0, 0), rgb(255, 255, 255));&quot;&gt;-&amp;gt; false&lt;/span&gt;&lt;/div&gt;" style="html=1;dashed=0;whiteSpace=wrap;shape=mxgraph.dfd.start;align=center;" parent="1" vertex="1">
          <mxGeometry x="-320" y="1480" width="160" height="50" as="geometry" />
        </mxCell>
        <mxCell id="dDd5OGA8RlVPMjsbOSa7-121" value="" style="group" parent="1" vertex="1" connectable="0">
          <mxGeometry x="160" y="920" width="180" height="140" as="geometry" />
        </mxCell>
        <mxCell id="dDd5OGA8RlVPMjsbOSa7-120" value="" style="rounded=0;whiteSpace=wrap;html=1;fillColor=#f5f5f5;fontColor=#333333;strokeColor=#666666;" parent="dDd5OGA8RlVPMjsbOSa7-121" vertex="1">
          <mxGeometry width="180" height="140" as="geometry" />
        </mxCell>
        <mxCell id="dDd5OGA8RlVPMjsbOSa7-97" value="" style="group" parent="dDd5OGA8RlVPMjsbOSa7-121" vertex="1" connectable="0">
          <mxGeometry x="10" y="10" width="160" height="40" as="geometry" />
        </mxCell>
        <mxCell id="dDd5OGA8RlVPMjsbOSa7-98" value="&lt;div style=&quot;&quot;&gt;&lt;b&gt;&lt;font style=&quot;color: rgb(51, 51, 255);&quot;&gt;CanFireNowSub&lt;/font&gt;&lt;/b&gt;&lt;/div&gt;" style="html=1;dashed=0;whiteSpace=wrap;shape=mxgraph.dfd.start;align=center;shadow=0;verticalAlign=top;spacing=-1;" parent="dDd5OGA8RlVPMjsbOSa7-97" vertex="1">
          <mxGeometry width="160" height="40" as="geometry" />
        </mxCell>
        <mxCell id="dDd5OGA8RlVPMjsbOSa7-99" value="&lt;span&gt;-&amp;gt;bool&lt;/span&gt;" style="text;strokeColor=none;fillColor=none;align=right;verticalAlign=middle;spacingLeft=0;spacingRight=16;overflow=hidden;points=[[0,0.5],[1,0.5]];portConstraint=eastwest;rotatable=0;whiteSpace=wrap;html=1;fontStyle=0;spacing=2;" parent="dDd5OGA8RlVPMjsbOSa7-97" vertex="1">
          <mxGeometry y="15" width="160" height="20" as="geometry" />
        </mxCell>
        <mxCell id="dDd5OGA8RlVPMjsbOSa7-119" style="edgeStyle=orthogonalEdgeStyle;rounded=0;orthogonalLoop=1;jettySize=auto;html=1;exitX=0.5;exitY=1;exitDx=0;exitDy=0;" parent="dDd5OGA8RlVPMjsbOSa7-121" source="dDd5OGA8RlVPMjsbOSa7-100" target="dDd5OGA8RlVPMjsbOSa7-117" edge="1">
          <mxGeometry relative="1" as="geometry" />
        </mxCell>
        <mxCell id="dDd5OGA8RlVPMjsbOSa7-100" value="&lt;b&gt;CandidateFactions&lt;/b&gt;" style="shape=process;whiteSpace=wrap;html=1;backgroundOutline=1;size=0.06666666666666667;" parent="dDd5OGA8RlVPMjsbOSa7-121" vertex="1">
          <mxGeometry x="20" y="70" width="140" height="20" as="geometry" />
        </mxCell>
        <mxCell id="dDd5OGA8RlVPMjsbOSa7-117" value="&lt;div&gt;&lt;font style=&quot;color: rgb(0, 0, 0);&quot;&gt;If any&lt;/font&gt;&lt;/div&gt;" style="rounded=0;whiteSpace=wrap;html=1;" parent="dDd5OGA8RlVPMjsbOSa7-121" vertex="1">
          <mxGeometry x="50" y="110" width="80" height="20" as="geometry" />
        </mxCell>
        <mxCell id="dDd5OGA8RlVPMjsbOSa7-118" style="edgeStyle=orthogonalEdgeStyle;rounded=0;orthogonalLoop=1;jettySize=auto;html=1;exitX=0.5;exitY=0.5;exitDx=0;exitDy=20;exitPerimeter=0;" parent="dDd5OGA8RlVPMjsbOSa7-121" source="dDd5OGA8RlVPMjsbOSa7-98" target="dDd5OGA8RlVPMjsbOSa7-100" edge="1">
          <mxGeometry relative="1" as="geometry" />
        </mxCell>
        <mxCell id="dDd5OGA8RlVPMjsbOSa7-125" value="" style="group" parent="1" vertex="1" connectable="0">
          <mxGeometry x="160" y="1080" width="220" height="210" as="geometry" />
        </mxCell>
        <mxCell id="dDd5OGA8RlVPMjsbOSa7-92" value="" style="rounded=0;whiteSpace=wrap;html=1;fillColor=#f5f5f5;fontColor=#333333;strokeColor=#666666;" parent="dDd5OGA8RlVPMjsbOSa7-125" vertex="1">
          <mxGeometry width="220" height="210" as="geometry" />
        </mxCell>
        <mxCell id="dDd5OGA8RlVPMjsbOSa7-94" value="&lt;div&gt;&lt;font style=&quot;color: rgb(0, 0, 0);&quot;&gt;Matched&lt;/font&gt;&lt;/div&gt;" style="rounded=0;whiteSpace=wrap;html=1;" parent="dDd5OGA8RlVPMjsbOSa7-125" vertex="1">
          <mxGeometry x="70" y="180" width="80" height="20" as="geometry" />
        </mxCell>
        <mxCell id="dDd5OGA8RlVPMjsbOSa7-85" value="" style="group" parent="dDd5OGA8RlVPMjsbOSa7-125" vertex="1" connectable="0">
          <mxGeometry x="10" y="10" width="200" height="40" as="geometry" />
        </mxCell>
        <mxCell id="dDd5OGA8RlVPMjsbOSa7-83" value="&lt;div style=&quot;&quot;&gt;&lt;b&gt;CandidateFactions&lt;/b&gt;&lt;/div&gt;" style="html=1;dashed=0;whiteSpace=wrap;shape=mxgraph.dfd.start;align=center;shadow=0;verticalAlign=top;spacing=-1;" parent="dDd5OGA8RlVPMjsbOSa7-85" vertex="1">
          <mxGeometry width="200" height="40" as="geometry" />
        </mxCell>
        <mxCell id="dDd5OGA8RlVPMjsbOSa7-84" value="-&amp;gt; IEnumerable&amp;lt;Faction&amp;gt;" style="text;strokeColor=none;fillColor=none;align=right;verticalAlign=middle;spacingLeft=0;spacingRight=16;overflow=hidden;points=[[0,0.5],[1,0.5]];portConstraint=eastwest;rotatable=0;whiteSpace=wrap;html=1;fontStyle=0;spacing=2;" parent="dDd5OGA8RlVPMjsbOSa7-85" vertex="1">
          <mxGeometry y="15" width="200" height="20" as="geometry" />
        </mxCell>
        <mxCell id="dDd5OGA8RlVPMjsbOSa7-123" style="edgeStyle=orthogonalEdgeStyle;rounded=0;orthogonalLoop=1;jettySize=auto;html=1;exitX=0.5;exitY=1;exitDx=0;exitDy=0;" parent="dDd5OGA8RlVPMjsbOSa7-125" source="dDd5OGA8RlVPMjsbOSa7-88" target="dDd5OGA8RlVPMjsbOSa7-122" edge="1">
          <mxGeometry relative="1" as="geometry" />
        </mxCell>
        <mxCell id="dDd5OGA8RlVPMjsbOSa7-88" value="Go through all&lt;div&gt;Find.FactionManager.AllFactions&lt;/div&gt;" style="rounded=0;whiteSpace=wrap;html=1;verticalAlign=middle;" parent="dDd5OGA8RlVPMjsbOSa7-125" vertex="1">
          <mxGeometry x="20" y="70" width="180" height="50" as="geometry" />
        </mxCell>
        <mxCell id="dDd5OGA8RlVPMjsbOSa7-89" style="edgeStyle=orthogonalEdgeStyle;rounded=0;orthogonalLoop=1;jettySize=auto;html=1;exitX=0.5;exitY=0.5;exitDx=0;exitDy=20;exitPerimeter=0;" parent="dDd5OGA8RlVPMjsbOSa7-125" source="dDd5OGA8RlVPMjsbOSa7-83" target="dDd5OGA8RlVPMjsbOSa7-88" edge="1">
          <mxGeometry relative="1" as="geometry" />
        </mxCell>
        <mxCell id="dDd5OGA8RlVPMjsbOSa7-124" style="edgeStyle=orthogonalEdgeStyle;rounded=0;orthogonalLoop=1;jettySize=auto;html=1;exitX=0.5;exitY=1;exitDx=0;exitDy=0;" parent="dDd5OGA8RlVPMjsbOSa7-125" source="dDd5OGA8RlVPMjsbOSa7-122" target="dDd5OGA8RlVPMjsbOSa7-94" edge="1">
          <mxGeometry relative="1" as="geometry" />
        </mxCell>
        <mxCell id="dDd5OGA8RlVPMjsbOSa7-122" value="&lt;b&gt;&lt;font style=&quot;color: rgb(51, 51, 255);&quot;&gt;FactionCanBeGroupSource&lt;/font&gt;&lt;/b&gt;" style="shape=process;whiteSpace=wrap;html=1;backgroundOutline=1;fillColor=#d5e8d4;strokeColor=#82b366;size=0.038461538461538464;" parent="dDd5OGA8RlVPMjsbOSa7-125" vertex="1">
          <mxGeometry x="20" y="140" width="180" height="20" as="geometry" />
        </mxCell>
        <mxCell id="dDd5OGA8RlVPMjsbOSa7-127" value="" style="group" parent="1" vertex="1" connectable="0">
          <mxGeometry x="160" y="1310" width="200" height="130" as="geometry" />
        </mxCell>
        <mxCell id="dDd5OGA8RlVPMjsbOSa7-126" value="" style="rounded=0;whiteSpace=wrap;html=1;fillColor=#f5f5f5;fontColor=#333333;strokeColor=#666666;" parent="dDd5OGA8RlVPMjsbOSa7-127" vertex="1">
          <mxGeometry width="200" height="130" as="geometry" />
        </mxCell>
        <mxCell id="dDd5OGA8RlVPMjsbOSa7-61" value="Basic check if a faction can be the source for a group on this map at all" style="rounded=0;whiteSpace=wrap;html=1;verticalAlign=middle;" parent="dDd5OGA8RlVPMjsbOSa7-127" vertex="1">
          <mxGeometry x="10" y="70" width="180" height="50" as="geometry" />
        </mxCell>
        <mxCell id="dDd5OGA8RlVPMjsbOSa7-75" value="" style="group;movable=1;resizable=1;rotatable=1;deletable=1;editable=1;locked=0;connectable=1;" parent="dDd5OGA8RlVPMjsbOSa7-127" vertex="1" connectable="0">
          <mxGeometry x="10" y="10" width="180" height="40" as="geometry" />
        </mxCell>
        <mxCell id="dDd5OGA8RlVPMjsbOSa7-76" value="&lt;div style=&quot;&quot;&gt;&lt;b&gt;&lt;font style=&quot;color: rgb(51, 51, 255);&quot;&gt;FactionCanBeGroupSource&lt;/font&gt;&lt;/b&gt;&lt;/div&gt;" style="html=1;dashed=0;whiteSpace=wrap;shape=mxgraph.dfd.start;align=center;shadow=0;verticalAlign=top;spacing=-1;" parent="dDd5OGA8RlVPMjsbOSa7-75" vertex="1">
          <mxGeometry width="180" height="40" as="geometry" />
        </mxCell>
        <mxCell id="dDd5OGA8RlVPMjsbOSa7-77" value="&lt;span&gt;-&amp;gt;bool&lt;/span&gt;" style="text;strokeColor=none;fillColor=none;align=right;verticalAlign=middle;spacingLeft=0;spacingRight=16;overflow=hidden;points=[[0,0.5],[1,0.5]];portConstraint=eastwest;rotatable=1;whiteSpace=wrap;html=1;fontStyle=0;spacing=2;movable=1;resizable=1;deletable=1;editable=1;locked=0;connectable=0;allowArrows=0;" parent="dDd5OGA8RlVPMjsbOSa7-75" vertex="1">
          <mxGeometry y="18" width="180" height="20" as="geometry" />
        </mxCell>
        <mxCell id="dDd5OGA8RlVPMjsbOSa7-78" style="edgeStyle=orthogonalEdgeStyle;rounded=0;orthogonalLoop=1;jettySize=auto;html=1;exitX=0.5;exitY=0.5;exitDx=0;exitDy=20;exitPerimeter=0;" parent="dDd5OGA8RlVPMjsbOSa7-127" source="dDd5OGA8RlVPMjsbOSa7-76" target="dDd5OGA8RlVPMjsbOSa7-61" edge="1">
          <mxGeometry relative="1" as="geometry" />
        </mxCell>
        <mxCell id="dDd5OGA8RlVPMjsbOSa7-128" value="&lt;div&gt;&lt;i&gt;&lt;b&gt;&lt;font style=&quot;color: rgb(51, 51, 255);&quot;&gt;Virtual&lt;/font&gt;&lt;/b&gt;&lt;/i&gt;&lt;/div&gt;&lt;font style=&quot;&quot;&gt;&lt;b&gt;&lt;font style=&quot;color: light-dark(rgb(0, 0, 0), rgb(0, 0, 0));&quot;&gt;CanFireNowSub&lt;/font&gt;&lt;/b&gt;&lt;br&gt;&lt;/font&gt;&lt;div&gt;&lt;b style=&quot;color: rgb(51, 51, 255);&quot;&gt;&lt;font style=&quot;color: light-dark(rgb(0, 0, 0), rgb(0, 0, 0));&quot;&gt;TryExecuteWorker&lt;/font&gt;&lt;/b&gt;&lt;/div&gt;" style="rounded=0;whiteSpace=wrap;html=1;" parent="1" vertex="1">
          <mxGeometry x="-339.97" y="850" width="200" height="50" as="geometry" />
        </mxCell>
        <mxCell id="dDd5OGA8RlVPMjsbOSa7-139" value="" style="group" parent="1" vertex="1" connectable="0">
          <mxGeometry x="560" y="1260" width="260" height="300" as="geometry" />
        </mxCell>
        <mxCell id="v0YyFfMFPHar8UtoXrKx-89" value="" style="rounded=0;whiteSpace=wrap;html=1;fillColor=#f5f5f5;fontColor=#333333;strokeColor=#666666;" parent="dDd5OGA8RlVPMjsbOSa7-139" vertex="1">
          <mxGeometry width="260" height="300" as="geometry" />
        </mxCell>
        <mxCell id="dDd5OGA8RlVPMjsbOSa7-137" value="" style="group" parent="dDd5OGA8RlVPMjsbOSa7-139" vertex="1" connectable="0">
          <mxGeometry x="30" y="10" width="200" height="50" as="geometry" />
        </mxCell>
        <mxCell id="dDd5OGA8RlVPMjsbOSa7-133" value="&lt;div style=&quot;&quot;&gt;&lt;b style=&quot;color: rgb(51, 51, 255);&quot;&gt;TryResolveRaidArriveMode&lt;/b&gt;&lt;/div&gt;" style="html=1;dashed=0;whiteSpace=wrap;shape=mxgraph.dfd.start;align=center;shadow=0;verticalAlign=top;spacing=-1;container=0;collapsible=0;" parent="dDd5OGA8RlVPMjsbOSa7-137" vertex="1">
          <mxGeometry width="200" height="50" as="geometry" />
        </mxCell>
        <mxCell id="dDd5OGA8RlVPMjsbOSa7-134" value="=&amp;gt; parms.raidArrivalMode" style="text;strokeColor=none;fillColor=none;align=right;verticalAlign=middle;spacingLeft=0;spacingRight=16;overflow=hidden;points=[[0,0.5],[1,0.5]];portConstraint=eastwest;rotatable=0;spacing=0;spacingBottom=0;html=1;whiteSpace=wrap;fontStyle=2;labelPosition=center;verticalLabelPosition=middle;spacingTop=-10;connectable=0;allowArrows=0;movable=1;resizable=1;noLabel=0;" parent="dDd5OGA8RlVPMjsbOSa7-137" vertex="1">
          <mxGeometry y="18" width="200" height="20" as="geometry" />
        </mxCell>
        <mxCell id="dDd5OGA8RlVPMjsbOSa7-135" value="&lt;span&gt;-&amp;gt;bool&lt;/span&gt;" style="text;strokeColor=none;fillColor=none;align=right;verticalAlign=middle;spacingLeft=0;spacingRight=16;overflow=hidden;points=[[0,0.5],[1,0.5]];portConstraint=eastwest;rotatable=0;whiteSpace=wrap;html=1;fontStyle=0;connectable=0;allowArrows=0;" parent="dDd5OGA8RlVPMjsbOSa7-137" vertex="1">
          <mxGeometry y="27" width="200" height="20" as="geometry" />
        </mxCell>
        <mxCell id="v0YyFfMFPHar8UtoXrKx-34" value="" style="edgeStyle=orthogonalEdgeStyle;rounded=0;orthogonalLoop=1;jettySize=auto;html=1;" parent="dDd5OGA8RlVPMjsbOSa7-139" source="v0YyFfMFPHar8UtoXrKx-30" target="v0YyFfMFPHar8UtoXrKx-32" edge="1">
          <mxGeometry relative="1" as="geometry" />
        </mxCell>
        <mxCell id="v0YyFfMFPHar8UtoXrKx-30" value="&lt;i&gt;Safety military aid&lt;/i&gt;&lt;div&gt;If it is aid, but no arrival modes that (a) flagged,&amp;nbsp;&lt;span style=&quot;background-color: transparent; color: light-dark(rgb(0, 0, 0), rgb(255, 255, 255));&quot;&gt;(b) can be used with parms, (c) positive weight, then force drop (60%/40%)&lt;/span&gt;&lt;/div&gt;" style="whiteSpace=wrap;html=1;rounded=0;" parent="dDd5OGA8RlVPMjsbOSa7-139" vertex="1">
          <mxGeometry x="10" y="80" width="240" height="70" as="geometry" />
        </mxCell>
        <mxCell id="v0YyFfMFPHar8UtoXrKx-36" value="" style="edgeStyle=orthogonalEdgeStyle;rounded=0;orthogonalLoop=1;jettySize=auto;html=1;" parent="dDd5OGA8RlVPMjsbOSa7-139" source="v0YyFfMFPHar8UtoXrKx-32" target="v0YyFfMFPHar8UtoXrKx-35" edge="1">
          <mxGeometry relative="1" as="geometry" />
        </mxCell>
        <mxCell id="v0YyFfMFPHar8UtoXrKx-32" value="&lt;i&gt;Safety fall back for&amp;nbsp;raidStrategy&lt;/i&gt;" style="whiteSpace=wrap;html=1;rounded=0;" parent="dDd5OGA8RlVPMjsbOSa7-139" vertex="1">
          <mxGeometry x="30" y="170" width="200" height="30" as="geometry" />
        </mxCell>
        <mxCell id="v0YyFfMFPHar8UtoXrKx-35" value="&lt;i&gt;Normal selection&lt;/i&gt;&lt;div&gt;Select from available&amp;nbsp;parms.raidStrategy.arriveModes, which can be used with parms, by weight&lt;/div&gt;" style="whiteSpace=wrap;html=1;rounded=0;" parent="dDd5OGA8RlVPMjsbOSa7-139" vertex="1">
          <mxGeometry x="10" y="220" width="240" height="70" as="geometry" />
        </mxCell>
        <mxCell id="dDd5OGA8RlVPMjsbOSa7-138" style="edgeStyle=orthogonalEdgeStyle;rounded=0;orthogonalLoop=1;jettySize=auto;html=1;exitX=0.5;exitY=0.5;exitDx=0;exitDy=25;exitPerimeter=0;" parent="dDd5OGA8RlVPMjsbOSa7-139" source="dDd5OGA8RlVPMjsbOSa7-133" target="v0YyFfMFPHar8UtoXrKx-30" edge="1">
          <mxGeometry relative="1" as="geometry" />
        </mxCell>
        <mxCell id="dDd5OGA8RlVPMjsbOSa7-150" value="" style="group" parent="1" vertex="1" connectable="0">
          <mxGeometry x="560" y="1580" width="200" height="150" as="geometry" />
        </mxCell>
        <mxCell id="dDd5OGA8RlVPMjsbOSa7-149" value="" style="rounded=0;whiteSpace=wrap;html=1;fillColor=#f5f5f5;fontColor=#333333;strokeColor=#666666;" parent="dDd5OGA8RlVPMjsbOSa7-150" vertex="1">
          <mxGeometry width="200" height="150" as="geometry" />
        </mxCell>
        <mxCell id="dDd5OGA8RlVPMjsbOSa7-141" value="" style="group" parent="dDd5OGA8RlVPMjsbOSa7-150" vertex="1" connectable="0">
          <mxGeometry x="10" y="10" width="180" height="50" as="geometry" />
        </mxCell>
        <mxCell id="dDd5OGA8RlVPMjsbOSa7-142" value="&lt;div style=&quot;&quot;&gt;&lt;b&gt;&lt;font style=&quot;color: rgb(51, 51, 255);&quot;&gt;ResolveRaidArriveMode&lt;/font&gt;&lt;/b&gt;&lt;/div&gt;" style="html=1;dashed=0;whiteSpace=wrap;shape=mxgraph.dfd.start;align=center;shadow=0;verticalAlign=top;spacing=-1;container=0;collapsible=0;" parent="dDd5OGA8RlVPMjsbOSa7-141" vertex="1">
          <mxGeometry width="180" height="50" as="geometry" />
        </mxCell>
        <mxCell id="dDd5OGA8RlVPMjsbOSa7-143" value="=&amp;gt; parms.raidArrivalMode" style="text;strokeColor=none;fillColor=none;align=right;verticalAlign=middle;spacingLeft=0;spacingRight=16;overflow=hidden;points=[[0,0.5],[1,0.5]];portConstraint=eastwest;rotatable=0;spacing=0;spacingBottom=0;html=1;whiteSpace=wrap;fontStyle=2;labelPosition=center;verticalLabelPosition=middle;spacingTop=-10;connectable=0;allowArrows=0;movable=1;resizable=1;noLabel=0;" parent="dDd5OGA8RlVPMjsbOSa7-141" vertex="1">
          <mxGeometry y="18" width="180" height="20" as="geometry" />
        </mxCell>
        <mxCell id="dDd5OGA8RlVPMjsbOSa7-144" value="&lt;span&gt;-&amp;gt;bool&lt;/span&gt;" style="text;strokeColor=none;fillColor=none;align=right;verticalAlign=middle;spacingLeft=0;spacingRight=16;overflow=hidden;points=[[0,0.5],[1,0.5]];portConstraint=eastwest;rotatable=0;whiteSpace=wrap;html=1;fontStyle=0;connectable=0;allowArrows=0;" parent="dDd5OGA8RlVPMjsbOSa7-141" vertex="1">
          <mxGeometry y="27" width="180" height="20" as="geometry" />
        </mxCell>
        <mxCell id="dDd5OGA8RlVPMjsbOSa7-148" style="edgeStyle=orthogonalEdgeStyle;rounded=0;orthogonalLoop=1;jettySize=auto;html=1;exitX=0.5;exitY=1;exitDx=0;exitDy=0;" parent="dDd5OGA8RlVPMjsbOSa7-150" source="dDd5OGA8RlVPMjsbOSa7-145" target="dDd5OGA8RlVPMjsbOSa7-147" edge="1">
          <mxGeometry relative="1" as="geometry" />
        </mxCell>
        <mxCell id="dDd5OGA8RlVPMjsbOSa7-145" value="&lt;b style=&quot;color: rgb(51, 51, 255);&quot;&gt;TryResolveRaidArriveMode&lt;/b&gt;" style="shape=process;whiteSpace=wrap;html=1;backgroundOutline=1;fillColor=#d5e8d4;strokeColor=#82b366;size=0.038461538461538464;" parent="dDd5OGA8RlVPMjsbOSa7-150" vertex="1">
          <mxGeometry x="10" y="80" width="180" height="20" as="geometry" />
        </mxCell>
        <mxCell id="dDd5OGA8RlVPMjsbOSa7-146" style="edgeStyle=orthogonalEdgeStyle;rounded=0;orthogonalLoop=1;jettySize=auto;html=1;exitX=0.5;exitY=0.5;exitDx=0;exitDy=25;exitPerimeter=0;" parent="dDd5OGA8RlVPMjsbOSa7-150" source="dDd5OGA8RlVPMjsbOSa7-142" target="dDd5OGA8RlVPMjsbOSa7-145" edge="1">
          <mxGeometry relative="1" as="geometry" />
        </mxCell>
        <mxCell id="dDd5OGA8RlVPMjsbOSa7-147" value="If false, then&amp;nbsp;EdgeWalkIn" style="whiteSpace=wrap;html=1;rounded=0;" parent="dDd5OGA8RlVPMjsbOSa7-150" vertex="1">
          <mxGeometry x="30" y="120" width="140" height="20" as="geometry" />
        </mxCell>
        <mxCell id="dDd5OGA8RlVPMjsbOSa7-164" value="" style="group" parent="1" vertex="1" connectable="0">
          <mxGeometry x="-309.97" y="1150" width="140" height="240" as="geometry" />
        </mxCell>
        <mxCell id="dDd5OGA8RlVPMjsbOSa7-16" value="" style="rounded=0;whiteSpace=wrap;html=1;fillColor=#f5f5f5;fontColor=#333333;strokeColor=#666666;" parent="dDd5OGA8RlVPMjsbOSa7-164" vertex="1">
          <mxGeometry width="140" height="240" as="geometry" />
        </mxCell>
        <mxCell id="dDd5OGA8RlVPMjsbOSa7-18" value="&lt;div&gt;Store records&lt;/div&gt;&lt;div&gt;Notify storyteller&lt;/div&gt;" style="whiteSpace=wrap;html=1;verticalAlign=middle;rounded=0;" parent="dDd5OGA8RlVPMjsbOSa7-164" vertex="1">
          <mxGeometry x="9.969999999999999" y="200" width="120" height="30" as="geometry" />
        </mxCell>
        <mxCell id="dDd5OGA8RlVPMjsbOSa7-14" style="edgeStyle=orthogonalEdgeStyle;rounded=0;orthogonalLoop=1;jettySize=auto;html=1;exitX=0.5;exitY=0.5;exitDx=0;exitDy=20;exitPerimeter=0;" parent="dDd5OGA8RlVPMjsbOSa7-164" source="dDd5OGA8RlVPMjsbOSa7-11" target="dDd5OGA8RlVPMjsbOSa7-12" edge="1">
          <mxGeometry relative="1" as="geometry" />
        </mxCell>
        <mxCell id="dDd5OGA8RlVPMjsbOSa7-11" value="&lt;div style=&quot;&quot;&gt;&lt;b&gt;TryExecute&lt;/b&gt;&lt;/div&gt;&lt;div style=&quot;text-align: right;&quot;&gt;-&amp;gt; bool&lt;/div&gt;" style="html=1;dashed=0;whiteSpace=wrap;shape=mxgraph.dfd.start;align=center;" parent="dDd5OGA8RlVPMjsbOSa7-164" vertex="1">
          <mxGeometry x="10" y="10" width="120" height="40" as="geometry" />
        </mxCell>
        <mxCell id="dDd5OGA8RlVPMjsbOSa7-15" style="edgeStyle=orthogonalEdgeStyle;rounded=0;orthogonalLoop=1;jettySize=auto;html=1;exitX=0.5;exitY=1;exitDx=0;exitDy=0;" parent="dDd5OGA8RlVPMjsbOSa7-164" source="dDd5OGA8RlVPMjsbOSa7-12" target="dDd5OGA8RlVPMjsbOSa7-13" edge="1">
          <mxGeometry relative="1" as="geometry" />
        </mxCell>
        <mxCell id="dDd5OGA8RlVPMjsbOSa7-12" value="Basic checks" style="rounded=0;whiteSpace=wrap;html=1;" parent="dDd5OGA8RlVPMjsbOSa7-164" vertex="1">
          <mxGeometry x="10" y="70" width="120" height="20" as="geometry" />
        </mxCell>
        <mxCell id="dDd5OGA8RlVPMjsbOSa7-162" style="edgeStyle=orthogonalEdgeStyle;rounded=0;orthogonalLoop=1;jettySize=auto;html=1;exitX=0.5;exitY=1;exitDx=0;exitDy=0;" parent="dDd5OGA8RlVPMjsbOSa7-164" source="dDd5OGA8RlVPMjsbOSa7-13" target="dDd5OGA8RlVPMjsbOSa7-161" edge="1">
          <mxGeometry relative="1" as="geometry" />
        </mxCell>
        <mxCell id="dDd5OGA8RlVPMjsbOSa7-13" value="&lt;font style=&quot;color: rgb(51, 51, 255);&quot;&gt;&lt;b&gt;TryExecuteWorker&lt;/b&gt;&lt;/font&gt;" style="shape=process;whiteSpace=wrap;html=1;backgroundOutline=1;fillColor=#d5e8d4;strokeColor=#82b366;size=0.038461538461538464;" parent="dDd5OGA8RlVPMjsbOSa7-164" vertex="1">
          <mxGeometry x="10" y="110" width="120" height="20" as="geometry" />
        </mxCell>
        <mxCell id="dDd5OGA8RlVPMjsbOSa7-163" style="edgeStyle=orthogonalEdgeStyle;rounded=0;orthogonalLoop=1;jettySize=auto;html=1;exitX=0.5;exitY=1;exitDx=0;exitDy=0;" parent="dDd5OGA8RlVPMjsbOSa7-164" source="dDd5OGA8RlVPMjsbOSa7-161" target="dDd5OGA8RlVPMjsbOSa7-18" edge="1">
          <mxGeometry relative="1" as="geometry" />
        </mxCell>
        <mxCell id="dDd5OGA8RlVPMjsbOSa7-161" value="true?" style="rhombus;whiteSpace=wrap;html=1;" parent="dDd5OGA8RlVPMjsbOSa7-164" vertex="1">
          <mxGeometry x="30" y="150" width="80" height="30" as="geometry" />
        </mxCell>
        <mxCell id="dDd5OGA8RlVPMjsbOSa7-168" value="" style="group" parent="1" vertex="1" connectable="0">
          <mxGeometry x="2330" y="1280" width="160" height="150" as="geometry" />
        </mxCell>
        <mxCell id="v0YyFfMFPHar8UtoXrKx-202" value="" style="rounded=0;whiteSpace=wrap;html=1;fillColor=#f5f5f5;fontColor=#333333;strokeColor=#666666;" parent="dDd5OGA8RlVPMjsbOSa7-168" vertex="1">
          <mxGeometry width="160" height="150" as="geometry" />
        </mxCell>
        <mxCell id="dDd5OGA8RlVPMjsbOSa7-166" style="edgeStyle=orthogonalEdgeStyle;rounded=0;orthogonalLoop=1;jettySize=auto;html=1;exitX=0.5;exitY=0.5;exitDx=0;exitDy=20;exitPerimeter=0;" parent="dDd5OGA8RlVPMjsbOSa7-168" source="v0YyFfMFPHar8UtoXrKx-199" target="dDd5OGA8RlVPMjsbOSa7-165" edge="1">
          <mxGeometry relative="1" as="geometry" />
        </mxCell>
        <mxCell id="v0YyFfMFPHar8UtoXrKx-199" value="&lt;b&gt;&lt;font style=&quot;color: rgb(51, 51, 255);&quot;&gt;TryExecuteWorker&lt;/font&gt;&lt;/b&gt;&lt;div style=&quot;text-align: right;&quot;&gt;&lt;font style=&quot;color: rgb(0, 0, 0);&quot;&gt;-&amp;gt; bool&lt;/font&gt;&lt;/div&gt;" style="html=1;dashed=0;whiteSpace=wrap;shape=mxgraph.dfd.start" parent="dDd5OGA8RlVPMjsbOSa7-168" vertex="1">
          <mxGeometry x="10" y="10" width="140" height="40" as="geometry" />
        </mxCell>
        <mxCell id="v0YyFfMFPHar8UtoXrKx-200" value="&lt;div&gt;Set speed = normal&lt;/div&gt;&lt;div&gt;Update story&lt;/div&gt;" style="whiteSpace=wrap;html=1;dashed=0;" parent="dDd5OGA8RlVPMjsbOSa7-168" vertex="1">
          <mxGeometry x="20" y="110" width="120" height="30" as="geometry" />
        </mxCell>
        <mxCell id="dDd5OGA8RlVPMjsbOSa7-167" style="edgeStyle=orthogonalEdgeStyle;rounded=0;orthogonalLoop=1;jettySize=auto;html=1;exitX=0.5;exitY=1;exitDx=0;exitDy=0;" parent="dDd5OGA8RlVPMjsbOSa7-168" source="dDd5OGA8RlVPMjsbOSa7-165" target="v0YyFfMFPHar8UtoXrKx-200" edge="1">
          <mxGeometry relative="1" as="geometry" />
        </mxCell>
        <mxCell id="dDd5OGA8RlVPMjsbOSa7-165" value="&lt;b&gt;base&lt;/b&gt;" style="shape=process;whiteSpace=wrap;html=1;backgroundOutline=1;fillColor=#d5e8d4;strokeColor=#82b366;size=0.125;" parent="dDd5OGA8RlVPMjsbOSa7-168" vertex="1">
          <mxGeometry x="40" y="70" width="80" height="19" as="geometry" />
        </mxCell>
        <mxCell id="dDd5OGA8RlVPMjsbOSa7-192" value="" style="group" parent="1" vertex="1" connectable="0">
          <mxGeometry x="920" y="1740" width="240" height="360" as="geometry" />
        </mxCell>
        <mxCell id="v0YyFfMFPHar8UtoXrKx-150" value="" style="rounded=0;whiteSpace=wrap;html=1;fillColor=#f5f5f5;fontColor=#333333;strokeColor=#666666;" parent="dDd5OGA8RlVPMjsbOSa7-192" vertex="1">
          <mxGeometry width="240" height="360" as="geometry" />
        </mxCell>
        <mxCell id="dDd5OGA8RlVPMjsbOSa7-181" style="edgeStyle=orthogonalEdgeStyle;rounded=0;orthogonalLoop=1;jettySize=auto;html=1;exitX=0.5;exitY=1;exitDx=0;exitDy=0;" parent="dDd5OGA8RlVPMjsbOSa7-192" source="v0YyFfMFPHar8UtoXrKx-94" target="dDd5OGA8RlVPMjsbOSa7-175" edge="1">
          <mxGeometry relative="1" as="geometry" />
        </mxCell>
        <mxCell id="v0YyFfMFPHar8UtoXrKx-94" value="&lt;b&gt;TryGenerateRaidInfo&lt;/b&gt;" style="shape=process;whiteSpace=wrap;html=1;backgroundOutline=1;size=0.06666666666666667;" parent="dDd5OGA8RlVPMjsbOSa7-192" vertex="1">
          <mxGeometry x="50" y="60" width="140" height="20" as="geometry" />
        </mxCell>
        <mxCell id="dDd5OGA8RlVPMjsbOSa7-185" style="edgeStyle=orthogonalEdgeStyle;rounded=0;orthogonalLoop=1;jettySize=auto;html=1;exitX=0.5;exitY=1;exitDx=0;exitDy=0;" parent="dDd5OGA8RlVPMjsbOSa7-192" source="v0YyFfMFPHar8UtoXrKx-133" target="dDd5OGA8RlVPMjsbOSa7-178" edge="1">
          <mxGeometry relative="1" as="geometry" />
        </mxCell>
        <mxCell id="v0YyFfMFPHar8UtoXrKx-133" value="&lt;div&gt;&lt;font style=&quot;color: rgb(0, 0, 0);&quot;&gt;Letter&lt;/font&gt;&lt;/div&gt;&lt;div&gt;&lt;font style=&quot;color: rgb(0, 0, 0);&quot;&gt;Check relations&lt;/font&gt;&lt;/div&gt;&lt;div&gt;&lt;font style=&quot;color: rgb(0, 0, 0);&quot;&gt;Create a list of groups to cycle through (fall back - all Pawns)&lt;/font&gt;&lt;/div&gt;" style="rounded=0;whiteSpace=wrap;html=1;" parent="dDd5OGA8RlVPMjsbOSa7-192" vertex="1">
          <mxGeometry x="10" y="170" width="220" height="60" as="geometry" />
        </mxCell>
        <mxCell id="v0YyFfMFPHar8UtoXrKx-136" value="&lt;b&gt;MakeLords&lt;/b&gt;&lt;br&gt;&lt;div&gt;&lt;span style=&quot;background-color: transparent; color: light-dark(rgb(0, 0, 0), rgb(255, 255, 255));&quot;&gt;raidStrategy.Worker&lt;/span&gt;&lt;/div&gt;" style="shape=process;whiteSpace=wrap;html=1;backgroundOutline=1;fillColor=#d5e8d4;strokeColor=#82b366;size=0.05;" parent="dDd5OGA8RlVPMjsbOSa7-192" vertex="1">
          <mxGeometry x="50" y="300" width="140" height="51" as="geometry" />
        </mxCell>
        <mxCell id="v0YyFfMFPHar8UtoXrKx-224" style="edgeStyle=orthogonalEdgeStyle;rounded=0;orthogonalLoop=1;jettySize=auto;html=1;exitX=0.5;exitY=0.5;exitDx=0;exitDy=15;exitPerimeter=0;" parent="dDd5OGA8RlVPMjsbOSa7-192" source="v0YyFfMFPHar8UtoXrKx-223" target="v0YyFfMFPHar8UtoXrKx-94" edge="1">
          <mxGeometry relative="1" as="geometry" />
        </mxCell>
        <mxCell id="v0YyFfMFPHar8UtoXrKx-223" value="&lt;b&gt;&lt;font style=&quot;color: rgb(51, 51, 255);&quot;&gt;TryExecuteWorker&lt;/font&gt;&lt;/b&gt;" style="html=1;dashed=0;whiteSpace=wrap;shape=mxgraph.dfd.start" parent="dDd5OGA8RlVPMjsbOSa7-192" vertex="1">
          <mxGeometry x="50" y="10" width="140" height="30" as="geometry" />
        </mxCell>
        <mxCell id="dDd5OGA8RlVPMjsbOSa7-189" style="edgeStyle=orthogonalEdgeStyle;rounded=0;orthogonalLoop=1;jettySize=auto;html=1;exitX=0.5;exitY=1;exitDx=0;exitDy=0;" parent="dDd5OGA8RlVPMjsbOSa7-192" source="dDd5OGA8RlVPMjsbOSa7-175" target="v0YyFfMFPHar8UtoXrKx-133" edge="1">
          <mxGeometry relative="1" as="geometry" />
        </mxCell>
        <mxCell id="dDd5OGA8RlVPMjsbOSa7-175" value="&lt;span style=&quot;color: rgb(204, 0, 204);&quot;&gt;GetLetterLabel&lt;/span&gt;&lt;div&gt;&lt;span style=&quot;color: rgb(204, 0, 204);&quot;&gt;GetLetterText&lt;/span&gt;&lt;/div&gt;&lt;div&gt;&lt;span style=&quot;color: rgb(204, 0, 204);&quot;&gt;GetRelatedPawnsInfoLetterText&lt;/span&gt;&lt;/div&gt;" style="shape=process;whiteSpace=wrap;html=1;backgroundOutline=1;size=0.05;fontStyle=1;fillColor=#d5e8d4;strokeColor=#82b366;" parent="dDd5OGA8RlVPMjsbOSa7-192" vertex="1">
          <mxGeometry x="19" y="100" width="202" height="50" as="geometry" />
        </mxCell>
        <mxCell id="dDd5OGA8RlVPMjsbOSa7-191" style="edgeStyle=orthogonalEdgeStyle;rounded=0;orthogonalLoop=1;jettySize=auto;html=1;exitX=0.5;exitY=1;exitDx=0;exitDy=0;" parent="dDd5OGA8RlVPMjsbOSa7-192" source="dDd5OGA8RlVPMjsbOSa7-178" target="v0YyFfMFPHar8UtoXrKx-136" edge="1">
          <mxGeometry relative="1" as="geometry" />
        </mxCell>
        <mxCell id="dDd5OGA8RlVPMjsbOSa7-178" value="&lt;span style=&quot;color: rgb(204, 0, 204);&quot;&gt;GetLetterDef&lt;/span&gt;&lt;div&gt;&lt;span style=&quot;color: rgb(204, 0, 204);&quot;&gt;&lt;span style=&quot;color: rgb(0, 0, 0);&quot;&gt;SendStandardLetter&lt;/span&gt;&lt;/span&gt;&lt;/div&gt;" style="shape=process;whiteSpace=wrap;html=1;backgroundOutline=1;size=0.045454545454545456;fontStyle=1;fillColor=#d5e8d4;strokeColor=#82b366;" parent="dDd5OGA8RlVPMjsbOSa7-192" vertex="1">
          <mxGeometry x="10" y="250" width="220" height="30" as="geometry" />
        </mxCell>
        <mxCell id="dDd5OGA8RlVPMjsbOSa7-202" value="" style="group" parent="1" vertex="1" connectable="0">
          <mxGeometry x="2030" y="850" width="280" height="400" as="geometry" />
        </mxCell>
        <mxCell id="v0YyFfMFPHar8UtoXrKx-197" value="" style="rounded=0;whiteSpace=wrap;html=1;fillColor=#f5f5f5;fontColor=#333333;strokeColor=#666666;" parent="dDd5OGA8RlVPMjsbOSa7-202" vertex="1">
          <mxGeometry width="280" height="400" as="geometry" />
        </mxCell>
        <mxCell id="dDd5OGA8RlVPMjsbOSa7-199" style="edgeStyle=orthogonalEdgeStyle;rounded=0;orthogonalLoop=1;jettySize=auto;html=1;exitX=0.5;exitY=0.5;exitDx=0;exitDy=20;exitPerimeter=0;" parent="dDd5OGA8RlVPMjsbOSa7-202" source="v0YyFfMFPHar8UtoXrKx-156" target="dDd5OGA8RlVPMjsbOSa7-198" edge="1">
          <mxGeometry relative="1" as="geometry" />
        </mxCell>
        <mxCell id="v0YyFfMFPHar8UtoXrKx-156" value="&lt;b&gt;&lt;font style=&quot;color: rgb(51, 51, 255);&quot;&gt;FactionCanBeGroupSource&lt;/font&gt;&lt;/b&gt;&lt;div style=&quot;text-align: right;&quot;&gt;&lt;font style=&quot;color: rgb(0, 0, 0);&quot;&gt;-&amp;gt; bool&lt;/font&gt;&lt;/div&gt;" style="html=1;dashed=0;whiteSpace=wrap;shape=mxgraph.dfd.start" parent="dDd5OGA8RlVPMjsbOSa7-202" vertex="1">
          <mxGeometry x="50" y="10" width="180" height="40" as="geometry" />
        </mxCell>
        <mxCell id="v0YyFfMFPHar8UtoXrKx-166" value="&lt;div&gt;Hostile&lt;/div&gt;&lt;div&gt;Days passed&lt;/div&gt;&lt;div&gt;White list: faction has it, but this map is not in it&lt;/div&gt;&lt;div&gt;Black list: faction has it and this map is in it&lt;/div&gt;" style="rounded=0;whiteSpace=wrap;html=1;" parent="dDd5OGA8RlVPMjsbOSa7-202" vertex="1">
          <mxGeometry x="10" y="110" width="260" height="60" as="geometry" />
        </mxCell>
        <mxCell id="v0YyFfMFPHar8UtoXrKx-196" value="" style="group" parent="dDd5OGA8RlVPMjsbOSa7-202" vertex="1" connectable="0">
          <mxGeometry x="30" y="180" width="220" height="210" as="geometry" />
        </mxCell>
        <mxCell id="v0YyFfMFPHar8UtoXrKx-194" value="" style="rounded=0;whiteSpace=wrap;html=1;fillColor=#f5f5f5;fontColor=#333333;strokeColor=#666666;" parent="v0YyFfMFPHar8UtoXrKx-196" vertex="1">
          <mxGeometry width="220" height="210" as="geometry" />
        </mxCell>
        <mxCell id="v0YyFfMFPHar8UtoXrKx-192" style="edgeStyle=orthogonalEdgeStyle;rounded=0;orthogonalLoop=1;jettySize=auto;html=1;exitX=0.5;exitY=1;exitDx=0;exitDy=0;" parent="v0YyFfMFPHar8UtoXrKx-196" source="v0YyFfMFPHar8UtoXrKx-173" target="v0YyFfMFPHar8UtoXrKx-183" edge="1">
          <mxGeometry relative="1" as="geometry" />
        </mxCell>
        <mxCell id="v0YyFfMFPHar8UtoXrKx-173" value="Set parms.faction = f" style="rounded=0;whiteSpace=wrap;html=1;" parent="v0YyFfMFPHar8UtoXrKx-196" vertex="1">
          <mxGeometry x="30" y="70" width="160" height="20" as="geometry" />
        </mxCell>
        <mxCell id="v0YyFfMFPHar8UtoXrKx-193" style="edgeStyle=orthogonalEdgeStyle;rounded=0;orthogonalLoop=1;jettySize=auto;html=1;exitX=0.5;exitY=1;exitDx=0;exitDy=0;" parent="v0YyFfMFPHar8UtoXrKx-196" source="v0YyFfMFPHar8UtoXrKx-183" target="v0YyFfMFPHar8UtoXrKx-184" edge="1">
          <mxGeometry relative="1" as="geometry" />
        </mxCell>
        <mxCell id="v0YyFfMFPHar8UtoXrKx-183" value="&lt;b&gt;CanUseWith&lt;/b&gt;&lt;br&gt;&lt;div&gt;&lt;span style=&quot;background-color: transparent; color: light-dark(rgb(0, 0, 0), rgb(255, 255, 255));&quot;&gt;raidStrategy.Worker&lt;/span&gt;&lt;/div&gt;" style="shape=process;whiteSpace=wrap;html=1;backgroundOutline=1;fillColor=#d5e8d4;strokeColor=#82b366;size=0.05;" parent="v0YyFfMFPHar8UtoXrKx-196" vertex="1">
          <mxGeometry x="40" y="109" width="140" height="51" as="geometry" />
        </mxCell>
        <mxCell id="v0YyFfMFPHar8UtoXrKx-184" value="Restore parms.faction" style="rounded=0;whiteSpace=wrap;html=1;" parent="v0YyFfMFPHar8UtoXrKx-196" vertex="1">
          <mxGeometry x="30" y="180" width="160" height="20" as="geometry" />
        </mxCell>
        <mxCell id="v0YyFfMFPHar8UtoXrKx-191" style="edgeStyle=orthogonalEdgeStyle;rounded=0;orthogonalLoop=1;jettySize=auto;html=1;exitX=0.5;exitY=0.5;exitDx=0;exitDy=10;exitPerimeter=0;entryX=0.5;entryY=0;entryDx=0;entryDy=0;" parent="v0YyFfMFPHar8UtoXrKx-196" source="v0YyFfMFPHar8UtoXrKx-188" target="v0YyFfMFPHar8UtoXrKx-173" edge="1">
          <mxGeometry relative="1" as="geometry" />
        </mxCell>
        <mxCell id="v0YyFfMFPHar8UtoXrKx-188" value="Strategy feasibility check&lt;div&gt;DefDatabase&amp;lt;RaidStrategyDef&amp;gt;&lt;/div&gt;" style="html=1;dashed=0;whiteSpace=wrap;shape=mxgraph.dfd.start" parent="v0YyFfMFPHar8UtoXrKx-196" vertex="1">
          <mxGeometry x="10" y="10" width="200" height="40" as="geometry" />
        </mxCell>
        <mxCell id="dDd5OGA8RlVPMjsbOSa7-200" style="edgeStyle=orthogonalEdgeStyle;rounded=0;orthogonalLoop=1;jettySize=auto;html=1;exitX=0.5;exitY=1;exitDx=0;exitDy=0;" parent="dDd5OGA8RlVPMjsbOSa7-202" source="dDd5OGA8RlVPMjsbOSa7-198" target="v0YyFfMFPHar8UtoXrKx-166" edge="1">
          <mxGeometry relative="1" as="geometry" />
        </mxCell>
        <mxCell id="dDd5OGA8RlVPMjsbOSa7-198" value="&lt;b&gt;base&lt;/b&gt;" style="shape=process;whiteSpace=wrap;html=1;backgroundOutline=1;fillColor=#d5e8d4;strokeColor=#82b366;size=0.125;" parent="dDd5OGA8RlVPMjsbOSa7-202" vertex="1">
          <mxGeometry x="100" y="70" width="80" height="19" as="geometry" />
        </mxCell>
        <mxCell id="dDd5OGA8RlVPMjsbOSa7-201" style="edgeStyle=orthogonalEdgeStyle;rounded=0;orthogonalLoop=1;jettySize=auto;html=1;exitX=0.5;exitY=1;exitDx=0;exitDy=0;" parent="dDd5OGA8RlVPMjsbOSa7-202" source="v0YyFfMFPHar8UtoXrKx-166" target="v0YyFfMFPHar8UtoXrKx-188" edge="1">
          <mxGeometry relative="1" as="geometry" />
        </mxCell>
        <mxCell id="9xvX5aYy29unOBB1nH0w-8" style="edgeStyle=orthogonalEdgeStyle;rounded=0;orthogonalLoop=1;jettySize=auto;html=1;exitX=1;exitY=0.5;exitDx=0;exitDy=0;entryX=1;entryY=0.25;entryDx=0;entryDy=0;curved=1;" parent="1" source="dDd5OGA8RlVPMjsbOSa7-204" target="dDd5OGA8RlVPMjsbOSa7-12" edge="1">
          <mxGeometry relative="1" as="geometry" />
        </mxCell>
        <mxCell id="dDd5OGA8RlVPMjsbOSa7-204" value="&lt;div&gt;Prefix&lt;/div&gt;" style="shape=hexagon;perimeter=hexagonPerimeter2;whiteSpace=wrap;html=1;fixedSize=1;" parent="1" vertex="1">
          <mxGeometry x="-130" y="1150" width="100" height="20" as="geometry" />
        </mxCell>
        <mxCell id="dDd5OGA8RlVPMjsbOSa7-209" value="Patch_IncidentWorker_TryExecute" style="text;html=1;align=center;verticalAlign=middle;whiteSpace=wrap;rounded=0;" parent="1" vertex="1">
          <mxGeometry x="-150.03" y="1080" width="190" height="21" as="geometry" />
        </mxCell>
        <mxCell id="9xvX5aYy29unOBB1nH0w-9" style="edgeStyle=orthogonalEdgeStyle;rounded=0;orthogonalLoop=1;jettySize=auto;html=1;exitX=1;exitY=0.5;exitDx=0;exitDy=0;entryX=1;entryY=1;entryDx=0;entryDy=0;curved=1;" parent="1" source="dDd5OGA8RlVPMjsbOSa7-210" target="dDd5OGA8RlVPMjsbOSa7-18" edge="1">
          <mxGeometry relative="1" as="geometry">
            <Array as="points">
              <mxPoint x="-10" y="1310" />
              <mxPoint x="-10" y="1380" />
            </Array>
          </mxGeometry>
        </mxCell>
        <mxCell id="dDd5OGA8RlVPMjsbOSa7-210" value="&lt;div&gt;Postfix&lt;/div&gt;" style="shape=hexagon;perimeter=hexagonPerimeter2;whiteSpace=wrap;html=1;fixedSize=1;" parent="1" vertex="1">
          <mxGeometry x="-130" y="1300" width="100" height="20" as="geometry" />
        </mxCell>
        <mxCell id="dDd5OGA8RlVPMjsbOSa7-212" value="Early intercept for:&lt;div&gt;PsychicEmanatorShipPartCrash&lt;/div&gt;&lt;div&gt;DefoliatorShipPartCrash&lt;/div&gt;" style="text;html=1;align=left;verticalAlign=middle;whiteSpace=wrap;rounded=0;labelBackgroundColor=#FFFFCC;spacing=0;" parent="1" vertex="1">
          <mxGeometry x="-130" y="1100" width="179.97" height="50" as="geometry" />
        </mxCell>
        <mxCell id="dDd5OGA8RlVPMjsbOSa7-214" value="Restore&amp;nbsp;IsHoaxingStoryTeller flag if intercepted, return true for storyteller." style="text;html=1;align=left;verticalAlign=middle;whiteSpace=wrap;rounded=0;labelBackgroundColor=#FFFFCC;" parent="1" vertex="1">
          <mxGeometry x="-150.03" y="1259" width="220" height="41" as="geometry" />
        </mxCell>
        <mxCell id="dDd5OGA8RlVPMjsbOSa7-218" style="edgeStyle=orthogonalEdgeStyle;rounded=0;orthogonalLoop=1;jettySize=auto;html=1;exitX=0;exitY=0.5;exitDx=0;exitDy=0;entryX=1;entryY=0.25;entryDx=0;entryDy=0;" parent="1" source="dDd5OGA8RlVPMjsbOSa7-215" target="dDd5OGA8RlVPMjsbOSa7-165" edge="1">
          <mxGeometry relative="1" as="geometry" />
        </mxCell>
        <mxCell id="dDd5OGA8RlVPMjsbOSa7-215" value="&lt;div&gt;Prefix&lt;/div&gt;" style="shape=hexagon;perimeter=hexagonPerimeter2;whiteSpace=wrap;html=1;fixedSize=1;" parent="1" vertex="1">
          <mxGeometry x="2511" y="1310" width="100" height="20" as="geometry" />
        </mxCell>
        <mxCell id="dDd5OGA8RlVPMjsbOSa7-216" value="Patch_RaidEnemy_TryExecuteWorker" style="text;html=1;align=left;verticalAlign=middle;whiteSpace=wrap;rounded=0;" parent="1" vertex="1">
          <mxGeometry x="2500" y="1289" width="220" height="21" as="geometry" />
        </mxCell>
        <mxCell id="dDd5OGA8RlVPMjsbOSa7-217" value="CurrentIncidentDef = __instance.def;" style="text;html=1;align=left;verticalAlign=middle;whiteSpace=wrap;rounded=0;labelBackgroundColor=#FFFFCC;spacing=0;" parent="1" vertex="1">
          <mxGeometry x="2500" y="1330.5" width="210" height="20" as="geometry" />
        </mxCell>
        <mxCell id="9xvX5aYy29unOBB1nH0w-11" style="edgeStyle=orthogonalEdgeStyle;rounded=0;orthogonalLoop=1;jettySize=auto;html=1;exitX=1;exitY=0.5;exitDx=0;exitDy=0;entryX=1;entryY=1;entryDx=0;entryDy=0;curved=1;" parent="1" source="dDd5OGA8RlVPMjsbOSa7-224" target="v0YyFfMFPHar8UtoXrKx-142" edge="1">
          <mxGeometry relative="1" as="geometry">
            <Array as="points">
              <mxPoint x="1361" y="1270" />
              <mxPoint x="1361" y="1310" />
              <mxPoint x="1150" y="1310" />
              <mxPoint x="1150" y="1290" />
            </Array>
          </mxGeometry>
        </mxCell>
        <mxCell id="dDd5OGA8RlVPMjsbOSa7-224" value="Postfix" style="shape=hexagon;perimeter=hexagonPerimeter2;whiteSpace=wrap;html=1;fixedSize=1;" parent="1" vertex="1">
          <mxGeometry x="1241" y="1259.9999999999998" width="100" height="20" as="geometry" />
        </mxCell>
        <mxCell id="dDd5OGA8RlVPMjsbOSa7-225" value="return false if intercepted" style="text;html=1;align=left;verticalAlign=middle;whiteSpace=wrap;rounded=0;labelBackgroundColor=#FFFFCC;spacing=0;" parent="1" vertex="1">
          <mxGeometry x="1230" y="1230" width="140" height="20" as="geometry" />
        </mxCell>
        <mxCell id="dDd5OGA8RlVPMjsbOSa7-226" value="Many patches" style="text;html=1;align=left;verticalAlign=middle;whiteSpace=wrap;rounded=0;" parent="1" vertex="1">
          <mxGeometry x="1360.5" y="1250" width="129" height="30" as="geometry" />
        </mxCell>
        <mxCell id="dDd5OGA8RlVPMjsbOSa7-234" style="edgeStyle=orthogonalEdgeStyle;rounded=0;orthogonalLoop=1;jettySize=auto;html=1;exitX=1;exitY=0.5;exitDx=0;exitDy=0;entryX=0.5;entryY=0;entryDx=0;entryDy=0;" parent="1" source="dDd5OGA8RlVPMjsbOSa7-228" target="dDd5OGA8RlVPMjsbOSa7-230" edge="1">
          <mxGeometry relative="1" as="geometry">
            <Array as="points">
              <mxPoint x="1370" y="1430" />
              <mxPoint x="1370" y="1405" />
              <mxPoint x="1425" y="1405" />
            </Array>
          </mxGeometry>
        </mxCell>
        <mxCell id="dDd5OGA8RlVPMjsbOSa7-228" value="Prefix" style="shape=hexagon;perimeter=hexagonPerimeter2;whiteSpace=wrap;html=1;fixedSize=1;" parent="1" vertex="1">
          <mxGeometry x="1250" y="1419.9999999999998" width="100" height="20" as="geometry" />
        </mxCell>
        <mxCell id="dDd5OGA8RlVPMjsbOSa7-231" style="edgeStyle=orthogonalEdgeStyle;rounded=0;orthogonalLoop=1;jettySize=auto;html=1;exitX=0;exitY=0.5;exitDx=0;exitDy=0;entryX=1;entryY=0.25;entryDx=0;entryDy=0;" parent="1" source="dDd5OGA8RlVPMjsbOSa7-230" target="v0YyFfMFPHar8UtoXrKx-148" edge="1">
          <mxGeometry relative="1" as="geometry">
            <Array as="points">
              <mxPoint x="1380" y="1460" />
              <mxPoint x="1240" y="1460" />
              <mxPoint x="1240" y="1485" />
            </Array>
          </mxGeometry>
        </mxCell>
        <mxCell id="dDd5OGA8RlVPMjsbOSa7-232" value="true" style="edgeLabel;html=1;align=center;verticalAlign=middle;resizable=0;points=[];" parent="dDd5OGA8RlVPMjsbOSa7-231" vertex="1" connectable="0">
          <mxGeometry x="-0.3706" y="1" relative="1" as="geometry">
            <mxPoint as="offset" />
          </mxGeometry>
        </mxCell>
        <mxCell id="dDd5OGA8RlVPMjsbOSa7-237" style="edgeStyle=orthogonalEdgeStyle;rounded=0;orthogonalLoop=1;jettySize=auto;html=1;exitX=1;exitY=0.5;exitDx=0;exitDy=0;entryX=0.5;entryY=0;entryDx=0;entryDy=0;" parent="1" source="dDd5OGA8RlVPMjsbOSa7-230" target="dDd5OGA8RlVPMjsbOSa7-236" edge="1">
          <mxGeometry relative="1" as="geometry" />
        </mxCell>
        <mxCell id="dDd5OGA8RlVPMjsbOSa7-238" value="false" style="edgeLabel;html=1;align=center;verticalAlign=middle;resizable=0;points=[];" parent="dDd5OGA8RlVPMjsbOSa7-237" vertex="1" connectable="0">
          <mxGeometry x="-0.5132" y="1" relative="1" as="geometry">
            <mxPoint as="offset" />
          </mxGeometry>
        </mxCell>
        <mxCell id="dDd5OGA8RlVPMjsbOSa7-230" value="Generate" style="rhombus;whiteSpace=wrap;html=1;" parent="1" vertex="1">
          <mxGeometry x="1380" y="1425" width="90" height="45" as="geometry" />
        </mxCell>
        <mxCell id="dDd5OGA8RlVPMjsbOSa7-235" value="GeneratorPatchFlag" style="text;html=1;align=center;verticalAlign=middle;whiteSpace=wrap;rounded=0;" parent="1" vertex="1">
          <mxGeometry x="1290" y="1375" width="140" height="30" as="geometry" />
        </mxCell>
        <mxCell id="dDd5OGA8RlVPMjsbOSa7-242" style="edgeStyle=orthogonalEdgeStyle;rounded=0;orthogonalLoop=1;jettySize=auto;html=1;exitX=0;exitY=0.5;exitDx=0;exitDy=0;entryX=1;entryY=0.5;entryDx=0;entryDy=0;" parent="1" source="dDd5OGA8RlVPMjsbOSa7-236" target="dDd5OGA8RlVPMjsbOSa7-241" edge="1">
          <mxGeometry relative="1" as="geometry" />
        </mxCell>
        <mxCell id="dDd5OGA8RlVPMjsbOSa7-244" value="true" style="edgeLabel;html=1;align=center;verticalAlign=middle;resizable=0;points=[];" parent="dDd5OGA8RlVPMjsbOSa7-242" vertex="1" connectable="0">
          <mxGeometry x="-0.4151" y="-1" relative="1" as="geometry">
            <mxPoint x="7" y="1" as="offset" />
          </mxGeometry>
        </mxCell>
        <mxCell id="dDd5OGA8RlVPMjsbOSa7-251" style="edgeStyle=orthogonalEdgeStyle;rounded=0;orthogonalLoop=1;jettySize=auto;html=1;exitX=1;exitY=0.5;exitDx=0;exitDy=0;entryX=1;entryY=0.5;entryDx=0;entryDy=0;" parent="1" source="dDd5OGA8RlVPMjsbOSa7-236" target="dDd5OGA8RlVPMjsbOSa7-249" edge="1">
          <mxGeometry relative="1" as="geometry" />
        </mxCell>
        <mxCell id="dDd5OGA8RlVPMjsbOSa7-253" value="false" style="edgeLabel;html=1;align=center;verticalAlign=middle;resizable=0;points=[];" parent="dDd5OGA8RlVPMjsbOSa7-251" vertex="1" connectable="0">
          <mxGeometry x="-0.6711" relative="1" as="geometry">
            <mxPoint as="offset" />
          </mxGeometry>
        </mxCell>
        <mxCell id="dDd5OGA8RlVPMjsbOSa7-236" value="ReturnTempList" style="rhombus;whiteSpace=wrap;html=1;" parent="1" vertex="1">
          <mxGeometry x="1450.5" y="1480" width="110" height="50" as="geometry" />
        </mxCell>
        <mxCell id="dDd5OGA8RlVPMjsbOSa7-257" style="edgeStyle=orthogonalEdgeStyle;rounded=0;orthogonalLoop=1;jettySize=auto;html=1;exitX=0;exitY=0.5;exitDx=0;exitDy=0;entryX=1;entryY=0.5;entryDx=0;entryDy=0;" parent="1" source="dDd5OGA8RlVPMjsbOSa7-241" target="dDd5OGA8RlVPMjsbOSa7-255" edge="1">
          <mxGeometry relative="1" as="geometry" />
        </mxCell>
        <mxCell id="dDd5OGA8RlVPMjsbOSa7-241" value="tmpList" style="rounded=0;whiteSpace=wrap;html=1;" parent="1" vertex="1">
          <mxGeometry x="1350" y="1530" width="70" height="20" as="geometry" />
        </mxCell>
        <mxCell id="dDd5OGA8RlVPMjsbOSa7-256" style="edgeStyle=orthogonalEdgeStyle;rounded=0;orthogonalLoop=1;jettySize=auto;html=1;exitX=0;exitY=0.5;exitDx=0;exitDy=0;entryX=1;entryY=0.5;entryDx=0;entryDy=0;" parent="1" source="dDd5OGA8RlVPMjsbOSa7-249" target="dDd5OGA8RlVPMjsbOSa7-255" edge="1">
          <mxGeometry relative="1" as="geometry" />
        </mxCell>
        <mxCell id="dDd5OGA8RlVPMjsbOSa7-249" value="0-List" style="rounded=0;whiteSpace=wrap;html=1;" parent="1" vertex="1">
          <mxGeometry x="1350" y="1560" width="70" height="20" as="geometry" />
        </mxCell>
        <mxCell id="dDd5OGA8RlVPMjsbOSa7-255" value="Generate = true" style="rounded=0;whiteSpace=wrap;html=1;" parent="1" vertex="1">
          <mxGeometry x="1230" y="1530" width="90" height="20" as="geometry" />
        </mxCell>
        <mxCell id="9xvX5aYy29unOBB1nH0w-1" value="This flag is set manually to true when our mod wants to generate smth using the same method" style="text;html=1;align=left;verticalAlign=middle;whiteSpace=wrap;rounded=0;labelBackgroundColor=#FFFFCC;spacing=0;" parent="1" vertex="1">
          <mxGeometry x="1430" y="1365" width="180" height="50" as="geometry" />
        </mxCell>
        <mxCell id="9xvX5aYy29unOBB1nH0w-2" value="Normally it is false" style="text;html=1;align=left;verticalAlign=middle;whiteSpace=wrap;rounded=0;labelBackgroundColor=#FFFFCC;spacing=0;" parent="1" vertex="1">
          <mxGeometry x="1520" y="1440" width="100" height="25" as="geometry" />
        </mxCell>
        <mxCell id="9xvX5aYy29unOBB1nH0w-3" value="Our mod normally returns prepared list (from first run)" style="text;html=1;align=left;verticalAlign=middle;whiteSpace=wrap;rounded=0;labelBackgroundColor=#FFFFCC;spacing=0;" parent="1" vertex="1">
          <mxGeometry x="1270" y="1492.5" width="150" height="25" as="geometry" />
        </mxCell>
        <mxCell id="9xvX5aYy29unOBB1nH0w-4" style="edgeStyle=orthogonalEdgeStyle;rounded=0;orthogonalLoop=1;jettySize=auto;html=1;exitX=1;exitY=0.25;exitDx=0;exitDy=0;entryX=0;entryY=0.5;entryDx=0;entryDy=0;elbow=vertical;curved=1;" parent="1" source="v0YyFfMFPHar8UtoXrKx-148" target="dDd5OGA8RlVPMjsbOSa7-228" edge="1">
          <mxGeometry relative="1" as="geometry" />
        </mxCell>
        <mxCell id="9xvX5aYy29unOBB1nH0w-6" style="edgeStyle=orthogonalEdgeStyle;rounded=0;orthogonalLoop=1;jettySize=auto;html=1;exitX=1;exitY=0;exitDx=0;exitDy=0;entryX=0;entryY=0.5;entryDx=0;entryDy=0;curved=1;" parent="1" source="dDd5OGA8RlVPMjsbOSa7-12" target="dDd5OGA8RlVPMjsbOSa7-204" edge="1">
          <mxGeometry relative="1" as="geometry">
            <Array as="points">
              <mxPoint x="-160" y="1220" />
              <mxPoint x="-160" y="1160" />
            </Array>
          </mxGeometry>
        </mxCell>
        <mxCell id="9xvX5aYy29unOBB1nH0w-10" style="edgeStyle=orthogonalEdgeStyle;rounded=0;orthogonalLoop=1;jettySize=auto;html=1;exitX=1;exitY=0.75;exitDx=0;exitDy=0;entryX=0;entryY=0.5;entryDx=0;entryDy=0;curved=1;" parent="1" source="dDd5OGA8RlVPMjsbOSa7-18" target="dDd5OGA8RlVPMjsbOSa7-210" edge="1">
          <mxGeometry relative="1" as="geometry" />
        </mxCell>
        <mxCell id="9xvX5aYy29unOBB1nH0w-12" value="The reason why we skip Pawn generation and re-implement it in our mod is that we need to show the quantity of pawns before they come." style="text;html=1;align=left;verticalAlign=middle;whiteSpace=wrap;rounded=0;labelBackgroundColor=#FFFFCC;spacing=0;" parent="1" vertex="1">
          <mxGeometry x="1241" y="1600" width="309" height="50" as="geometry" />
        </mxCell>
        <mxCell id="9xvX5aYy29unOBB1nH0w-14" style="edgeStyle=orthogonalEdgeStyle;rounded=0;orthogonalLoop=1;jettySize=auto;html=1;exitX=0;exitY=0.5;exitDx=0;exitDy=0;entryX=1;entryY=0.5;entryDx=0;entryDy=0;curved=1;" parent="1" source="9xvX5aYy29unOBB1nH0w-13" target="v0YyFfMFPHar8UtoXrKx-144" edge="1">
          <mxGeometry relative="1" as="geometry">
            <Array as="points">
              <mxPoint x="1370" y="1295" />
              <mxPoint x="1370" y="1320" />
              <mxPoint x="1250" y="1320" />
              <mxPoint x="1250" y="1375" />
            </Array>
          </mxGeometry>
        </mxCell>
        <mxCell id="9xvX5aYy29unOBB1nH0w-13" value="&lt;font style=&quot;background-color: light-dark(rgb(255, 255, 255), rgb(24, 24, 0)); color: rgb(255, 0, 0);&quot;&gt;!!Need to check deep how it works!!&lt;/font&gt;" style="text;html=1;align=left;verticalAlign=middle;whiteSpace=wrap;rounded=0;labelBackgroundColor=#FFFFCC;spacing=0;fontStyle=1" parent="1" vertex="1">
          <mxGeometry x="1400" y="1270" width="240" height="50" as="geometry" />
        </mxCell>
        <mxCell id="9xvX5aYy29unOBB1nH0w-18" style="edgeStyle=orthogonalEdgeStyle;rounded=0;orthogonalLoop=1;jettySize=auto;html=1;exitX=1;exitY=0.5;exitDx=0;exitDy=0;entryX=0;entryY=0.5;entryDx=0;entryDy=0;" parent="1" source="9xvX5aYy29unOBB1nH0w-15" target="9xvX5aYy29unOBB1nH0w-17" edge="1">
          <mxGeometry relative="1" as="geometry" />
        </mxCell>
        <mxCell id="9xvX5aYy29unOBB1nH0w-15" value="Prefix" style="shape=hexagon;perimeter=hexagonPerimeter2;whiteSpace=wrap;html=1;fixedSize=1;" parent="1" vertex="1">
          <mxGeometry x="1241" y="1099.9999999999998" width="100" height="20" as="geometry" />
        </mxCell>
        <mxCell id="9xvX5aYy29unOBB1nH0w-20" style="edgeStyle=orthogonalEdgeStyle;rounded=0;orthogonalLoop=1;jettySize=auto;html=1;exitX=1;exitY=0.5;exitDx=0;exitDy=0;entryX=1;entryY=1;entryDx=0;entryDy=0;curved=1;" parent="1" source="9xvX5aYy29unOBB1nH0w-17" target="v0YyFfMFPHar8UtoXrKx-142" edge="1">
          <mxGeometry relative="1" as="geometry">
            <Array as="points">
              <mxPoint x="1640" y="1110" />
              <mxPoint x="1640" y="1190" />
              <mxPoint x="1190" y="1190" />
              <mxPoint x="1190" y="1290" />
            </Array>
          </mxGeometry>
        </mxCell>
        <mxCell id="9xvX5aYy29unOBB1nH0w-17" value="Checks if it is the final run for execution.&lt;div&gt;If so, then skip re-calculation of spawnCenter&lt;/div&gt;" style="rounded=0;whiteSpace=wrap;html=1;" parent="1" vertex="1">
          <mxGeometry x="1360" y="1090" width="250" height="40" as="geometry" />
        </mxCell>
        <mxCell id="DYolzxln7jAGXBVzfGWy-11" value="" style="edgeStyle=orthogonalEdgeStyle;rounded=0;orthogonalLoop=1;jettySize=auto;html=1;" edge="1" parent="1" source="DYolzxln7jAGXBVzfGWy-6" target="DYolzxln7jAGXBVzfGWy-10">
          <mxGeometry relative="1" as="geometry" />
        </mxCell>
        <mxCell id="DYolzxln7jAGXBVzfGWy-6" value="&lt;span style=&quot;&quot;&gt;Patch_RaidEnemy_TryExecuteWorker:&amp;nbsp;&lt;/span&gt;&lt;span style=&quot;background-color: transparent; color: light-dark(rgb(0, 0, 0), rgb(255, 255, 255));&quot;&gt;Prefix&lt;/span&gt;" style="shape=display;whiteSpace=wrap;html=1;align=center;size=0.10714285714285714;" vertex="1" parent="1">
          <mxGeometry x="1200" y="1740" width="260" height="20" as="geometry" />
        </mxCell>
        <mxCell id="DYolzxln7jAGXBVzfGWy-10" value="&lt;span style=&quot;text-align: left;&quot;&gt;CurrentIncidentDef = __instance.def&lt;/span&gt;" style="whiteSpace=wrap;html=1;" vertex="1" parent="1">
          <mxGeometry x="1230" y="1780" width="200" height="20" as="geometry" />
        </mxCell>
        <mxCell id="DYolzxln7jAGXBVzfGWy-12" style="edgeStyle=orthogonalEdgeStyle;rounded=0;orthogonalLoop=1;jettySize=auto;html=1;exitX=1;exitY=0;exitDx=0;exitDy=0;entryX=0;entryY=0.5;entryDx=0;entryDy=0;entryPerimeter=0;curved=1;startArrow=classic;startFill=1;" edge="1" parent="1" source="v0YyFfMFPHar8UtoXrKx-94" target="DYolzxln7jAGXBVzfGWy-6">
          <mxGeometry relative="1" as="geometry">
            <Array as="points">
              <mxPoint x="1150" y="1800" />
              <mxPoint x="1150" y="1750" />
            </Array>
          </mxGeometry>
        </mxCell>
        <mxCell id="DYolzxln7jAGXBVzfGWy-15" value="&lt;span style=&quot;font-weight: 400; text-align: left;&quot;&gt;&lt;font style=&quot;font-size: 18px;&quot;&gt;IncidentWorker_MechCluster&lt;/font&gt;&lt;/span&gt;" style="swimlane;fontStyle=1;align=center;verticalAlign=top;childLayout=stackLayout;horizontal=1;startSize=40;horizontalStack=0;resizeParent=1;resizeParentMax=0;resizeLast=0;collapsible=1;marginBottom=0;whiteSpace=wrap;html=1;rounded=0;swimlaneLine=1;swimlaneFillColor=default;" vertex="1" parent="1">
          <mxGeometry x="160" y="2250" width="340" height="100" as="geometry">
            <mxRectangle x="230" y="180" width="100" height="30" as="alternateBounds" />
          </mxGeometry>
        </mxCell>
        <mxCell id="DYolzxln7jAGXBVzfGWy-17" value="&lt;font style=&quot;color: light-dark(rgb(0, 0, 0), rgb(0, 0, 0));&quot;&gt;-&lt;/font&gt;" style="text;strokeColor=none;fillColor=none;align=left;verticalAlign=top;spacingLeft=4;spacingRight=4;overflow=hidden;rotatable=0;points=[[0,0.5],[1,0.5]];portConstraint=eastwest;whiteSpace=wrap;html=1;" vertex="1" parent="DYolzxln7jAGXBVzfGWy-15">
          <mxGeometry y="40" width="340" height="26" as="geometry" />
        </mxCell>
        <mxCell id="DYolzxln7jAGXBVzfGWy-18" value="" style="line;strokeWidth=1;fillColor=none;align=left;verticalAlign=middle;spacingTop=-1;spacingLeft=3;spacingRight=3;rotatable=0;labelPosition=right;points=[];portConstraint=eastwest;strokeColor=inherit;" vertex="1" parent="DYolzxln7jAGXBVzfGWy-15">
          <mxGeometry y="66" width="340" height="8" as="geometry" />
        </mxCell>
        <mxCell id="DYolzxln7jAGXBVzfGWy-22" value="&lt;font style=&quot;color: rgb(204, 0, 204);&quot;&gt;-&lt;/font&gt;" style="text;strokeColor=none;fillColor=none;align=left;verticalAlign=top;spacingLeft=4;spacingRight=4;overflow=hidden;rotatable=0;points=[[0,0.5],[1,0.5]];portConstraint=eastwest;whiteSpace=wrap;html=1;" vertex="1" parent="DYolzxln7jAGXBVzfGWy-15">
          <mxGeometry y="74" width="340" height="26" as="geometry" />
        </mxCell>
        <mxCell id="DYolzxln7jAGXBVzfGWy-38" value="" style="group" vertex="1" connectable="0" parent="1">
          <mxGeometry x="160" y="2370" width="180" height="180" as="geometry" />
        </mxCell>
        <mxCell id="DYolzxln7jAGXBVzfGWy-24" value="" style="rounded=0;whiteSpace=wrap;html=1;fillColor=#f5f5f5;fontColor=#333333;strokeColor=#666666;" vertex="1" parent="DYolzxln7jAGXBVzfGWy-38">
          <mxGeometry width="180" height="180" as="geometry" />
        </mxCell>
        <mxCell id="DYolzxln7jAGXBVzfGWy-37" style="edgeStyle=orthogonalEdgeStyle;rounded=0;orthogonalLoop=1;jettySize=auto;html=1;exitX=0.5;exitY=1;exitDx=0;exitDy=0;" edge="1" parent="DYolzxln7jAGXBVzfGWy-38" source="DYolzxln7jAGXBVzfGWy-35" target="DYolzxln7jAGXBVzfGWy-32">
          <mxGeometry relative="1" as="geometry" />
        </mxCell>
        <mxCell id="DYolzxln7jAGXBVzfGWy-35" value="&lt;font style=&quot;color: light-dark(rgb(0, 0, 0), rgb(0, 0, 0));&quot;&gt;base&lt;/font&gt;" style="shape=process;whiteSpace=wrap;html=1;backgroundOutline=1;size=0.16666666666666666;fontStyle=1;fillColor=#d5e8d4;strokeColor=#82b366;" vertex="1" parent="DYolzxln7jAGXBVzfGWy-38">
          <mxGeometry x="60" y="110" width="60" height="20" as="geometry" />
        </mxCell>
        <mxCell id="DYolzxln7jAGXBVzfGWy-25" value="" style="group" vertex="1" connectable="0" parent="DYolzxln7jAGXBVzfGWy-38">
          <mxGeometry x="10" y="10" width="160" height="40" as="geometry" />
        </mxCell>
        <mxCell id="DYolzxln7jAGXBVzfGWy-26" value="&lt;div style=&quot;&quot;&gt;&lt;b&gt;&lt;font style=&quot;color: rgb(51, 51, 255);&quot;&gt;CanFireNowSub&lt;/font&gt;&lt;/b&gt;&lt;/div&gt;" style="html=1;dashed=0;whiteSpace=wrap;shape=mxgraph.dfd.start;align=center;shadow=0;verticalAlign=top;spacing=-1;" vertex="1" parent="DYolzxln7jAGXBVzfGWy-25">
          <mxGeometry width="160" height="40" as="geometry" />
        </mxCell>
        <mxCell id="DYolzxln7jAGXBVzfGWy-27" value="&lt;span&gt;-&amp;gt;bool&lt;/span&gt;" style="text;strokeColor=none;fillColor=none;align=right;verticalAlign=middle;spacingLeft=0;spacingRight=16;overflow=hidden;points=[[0,0.5],[1,0.5]];portConstraint=eastwest;rotatable=0;whiteSpace=wrap;html=1;fontStyle=0;spacing=2;" vertex="1" parent="DYolzxln7jAGXBVzfGWy-25">
          <mxGeometry y="15" width="160" height="20" as="geometry" />
        </mxCell>
        <mxCell id="DYolzxln7jAGXBVzfGWy-36" style="edgeStyle=orthogonalEdgeStyle;rounded=0;orthogonalLoop=1;jettySize=auto;html=1;exitX=0.5;exitY=1;exitDx=0;exitDy=0;" edge="1" parent="DYolzxln7jAGXBVzfGWy-38" source="DYolzxln7jAGXBVzfGWy-30" target="DYolzxln7jAGXBVzfGWy-35">
          <mxGeometry relative="1" as="geometry" />
        </mxCell>
        <mxCell id="DYolzxln7jAGXBVzfGWy-30" value="&lt;div&gt;&lt;font style=&quot;color: rgb(0, 0, 0);&quot;&gt;Check for Royalty&lt;/font&gt;&lt;/div&gt;" style="rounded=0;whiteSpace=wrap;html=1;" vertex="1" parent="DYolzxln7jAGXBVzfGWy-38">
          <mxGeometry x="40" y="70" width="100" height="20" as="geometry" />
        </mxCell>
        <mxCell id="DYolzxln7jAGXBVzfGWy-31" style="edgeStyle=orthogonalEdgeStyle;rounded=0;orthogonalLoop=1;jettySize=auto;html=1;exitX=0.5;exitY=0.5;exitDx=0;exitDy=20;exitPerimeter=0;" edge="1" parent="DYolzxln7jAGXBVzfGWy-38" source="DYolzxln7jAGXBVzfGWy-26">
          <mxGeometry relative="1" as="geometry">
            <mxPoint x="90.0322580645161" y="70" as="targetPoint" />
          </mxGeometry>
        </mxCell>
        <mxCell id="DYolzxln7jAGXBVzfGWy-32" value="&lt;div&gt;&lt;font style=&quot;color: rgb(0, 0, 0);&quot;&gt;Check mech faction&lt;/font&gt;&lt;/div&gt;" style="rounded=0;whiteSpace=wrap;html=1;" vertex="1" parent="DYolzxln7jAGXBVzfGWy-38">
          <mxGeometry x="30" y="150" width="120" height="20" as="geometry" />
        </mxCell>
        <mxCell id="DYolzxln7jAGXBVzfGWy-78" value="" style="group" vertex="1" connectable="0" parent="1">
          <mxGeometry x="160" y="2570" width="240" height="620" as="geometry" />
        </mxCell>
        <mxCell id="DYolzxln7jAGXBVzfGWy-77" value="" style="rounded=0;whiteSpace=wrap;html=1;fillColor=#f5f5f5;fontColor=#333333;strokeColor=#666666;" vertex="1" parent="DYolzxln7jAGXBVzfGWy-78">
          <mxGeometry width="240" height="620" as="geometry" />
        </mxCell>
        <mxCell id="DYolzxln7jAGXBVzfGWy-52" value="&lt;b&gt;&lt;font style=&quot;color: rgb(51, 51, 255);&quot;&gt;TryExecuteWorker&lt;/font&gt;&lt;/b&gt;&lt;br&gt;&lt;div style=&quot;&quot;&gt;&lt;span style=&quot;background-color: transparent;&quot;&gt;=&amp;gt;&amp;nbsp;&lt;/span&gt;&lt;/div&gt;&lt;div style=&quot;&quot;&gt;-&amp;gt; bool&lt;span style=&quot;background-color: transparent;&quot;&gt;&lt;/span&gt;&lt;/div&gt;" style="html=1;dashed=0;whiteSpace=wrap;shape=mxgraph.dfd.start;align=center;" vertex="1" parent="DYolzxln7jAGXBVzfGWy-78">
          <mxGeometry x="30" y="10" width="180" height="50" as="geometry" />
        </mxCell>
        <mxCell id="DYolzxln7jAGXBVzfGWy-72" value="" style="group" vertex="1" connectable="0" parent="DYolzxln7jAGXBVzfGWy-78">
          <mxGeometry x="10" y="80" width="220" height="350" as="geometry" />
        </mxCell>
        <mxCell id="DYolzxln7jAGXBVzfGWy-40" value="" style="rounded=0;whiteSpace=wrap;html=1;fillColor=#f5f5f5;fontColor=#333333;strokeColor=#666666;" vertex="1" parent="DYolzxln7jAGXBVzfGWy-72">
          <mxGeometry width="220" height="350" as="geometry" />
        </mxCell>
        <mxCell id="DYolzxln7jAGXBVzfGWy-59" style="edgeStyle=orthogonalEdgeStyle;rounded=0;orthogonalLoop=1;jettySize=auto;html=1;exitX=0.5;exitY=0.5;exitDx=0;exitDy=30;exitPerimeter=0;" edge="1" parent="DYolzxln7jAGXBVzfGWy-72" source="DYolzxln7jAGXBVzfGWy-53" target="DYolzxln7jAGXBVzfGWy-58">
          <mxGeometry relative="1" as="geometry" />
        </mxCell>
        <mxCell id="DYolzxln7jAGXBVzfGWy-53" value="&lt;b&gt;GenerateClusterSketch&lt;/b&gt;&lt;div&gt;MechClusterGenerator&lt;br&gt;&lt;div style=&quot;&quot;&gt;&lt;span style=&quot;background-color: transparent;&quot;&gt;=&amp;gt;&amp;nbsp;&lt;/span&gt;&lt;/div&gt;&lt;div style=&quot;&quot;&gt;-&amp;gt; MechClusterSketch&lt;span style=&quot;background-color: transparent;&quot;&gt;&lt;/span&gt;&lt;/div&gt;&lt;/div&gt;" style="html=1;dashed=0;whiteSpace=wrap;shape=mxgraph.dfd.start;align=center;" vertex="1" parent="DYolzxln7jAGXBVzfGWy-72">
          <mxGeometry x="20" y="10" width="180" height="60" as="geometry" />
        </mxCell>
        <mxCell id="DYolzxln7jAGXBVzfGWy-71" style="edgeStyle=orthogonalEdgeStyle;rounded=0;orthogonalLoop=1;jettySize=auto;html=1;exitX=0.5;exitY=1;exitDx=0;exitDy=0;" edge="1" parent="DYolzxln7jAGXBVzfGWy-72" source="DYolzxln7jAGXBVzfGWy-58" target="DYolzxln7jAGXBVzfGWy-62">
          <mxGeometry relative="1" as="geometry" />
        </mxCell>
        <mxCell id="DYolzxln7jAGXBVzfGWy-58" value="&lt;div&gt;&lt;font style=&quot;color: rgb(0, 0, 0);&quot;&gt;Check for Royalty&lt;/font&gt;&lt;/div&gt;&lt;div&gt;&lt;font style=&quot;color: rgb(0, 0, 0);&quot;&gt;Max points: 10k&lt;/font&gt;&lt;/div&gt;" style="rounded=0;whiteSpace=wrap;html=1;" vertex="1" parent="DYolzxln7jAGXBVzfGWy-72">
          <mxGeometry x="60" y="90" width="100" height="30" as="geometry" />
        </mxCell>
        <mxCell id="DYolzxln7jAGXBVzfGWy-65" style="edgeStyle=orthogonalEdgeStyle;rounded=0;orthogonalLoop=1;jettySize=auto;html=1;exitX=0.5;exitY=1;exitDx=0;exitDy=0;" edge="1" parent="DYolzxln7jAGXBVzfGWy-72" source="DYolzxln7jAGXBVzfGWy-62" target="DYolzxln7jAGXBVzfGWy-64">
          <mxGeometry relative="1" as="geometry" />
        </mxCell>
        <mxCell id="DYolzxln7jAGXBVzfGWy-62" value="&lt;div&gt;&lt;font style=&quot;color: rgb(0, 0, 0);&quot;&gt;&lt;b&gt;Add some mechanoids&lt;/b&gt;&lt;/font&gt;&lt;/div&gt;&lt;div&gt;&lt;font style=&quot;color: rgb(0, 0, 0);&quot;&gt;Check if can be used in cluster&lt;/font&gt;&lt;/div&gt;&lt;div&gt;&lt;font style=&quot;color: rgb(0, 0, 0);&quot;&gt;Add to list&lt;/font&gt;&lt;/div&gt;&lt;div&gt;&lt;font style=&quot;color: rgb(0, 0, 0);&quot;&gt;Adjust remaining points&lt;/font&gt;&lt;/div&gt;" style="rounded=0;whiteSpace=wrap;html=1;" vertex="1" parent="DYolzxln7jAGXBVzfGWy-72">
          <mxGeometry x="20" y="140" width="180" height="60" as="geometry" />
        </mxCell>
        <mxCell id="DYolzxln7jAGXBVzfGWy-67" style="edgeStyle=orthogonalEdgeStyle;rounded=0;orthogonalLoop=1;jettySize=auto;html=1;exitX=0.5;exitY=1;exitDx=0;exitDy=0;" edge="1" parent="DYolzxln7jAGXBVzfGWy-72" source="DYolzxln7jAGXBVzfGWy-64" target="DYolzxln7jAGXBVzfGWy-66">
          <mxGeometry relative="1" as="geometry" />
        </mxCell>
        <mxCell id="DYolzxln7jAGXBVzfGWy-64" value="&lt;b&gt;Generate&lt;/b&gt;&lt;br&gt;&lt;div&gt;RimWorld.SketchGen.SketchGen&lt;/div&gt;&lt;div&gt;Create sketch of cluster&lt;/div&gt;" style="shape=process;whiteSpace=wrap;html=1;backgroundOutline=1;fillColor=#d5e8d4;strokeColor=#82b366;size=0.05;" vertex="1" parent="DYolzxln7jAGXBVzfGWy-72">
          <mxGeometry x="10" y="220" width="200" height="51" as="geometry" />
        </mxCell>
        <mxCell id="DYolzxln7jAGXBVzfGWy-66" value="&lt;div&gt;&lt;b&gt;Find place for mechs&lt;/b&gt;&lt;/div&gt;&lt;div&gt;Go throught all mechs and find&lt;/div&gt;&lt;div&gt;a free space. Then assign&lt;/div&gt;" style="rounded=0;whiteSpace=wrap;html=1;" vertex="1" parent="DYolzxln7jAGXBVzfGWy-72">
          <mxGeometry x="20" y="290" width="180" height="50" as="geometry" />
        </mxCell>
        <mxCell id="DYolzxln7jAGXBVzfGWy-70" style="edgeStyle=orthogonalEdgeStyle;rounded=0;orthogonalLoop=1;jettySize=auto;html=1;exitX=0.5;exitY=0.5;exitDx=0;exitDy=25;exitPerimeter=0;" edge="1" parent="DYolzxln7jAGXBVzfGWy-78" source="DYolzxln7jAGXBVzfGWy-52" target="DYolzxln7jAGXBVzfGWy-53">
          <mxGeometry relative="1" as="geometry" />
        </mxCell>
        <mxCell id="DYolzxln7jAGXBVzfGWy-76" style="edgeStyle=orthogonalEdgeStyle;rounded=0;orthogonalLoop=1;jettySize=auto;html=1;exitX=0.5;exitY=1;exitDx=0;exitDy=0;" edge="1" parent="DYolzxln7jAGXBVzfGWy-78" source="DYolzxln7jAGXBVzfGWy-73" target="DYolzxln7jAGXBVzfGWy-75">
          <mxGeometry relative="1" as="geometry" />
        </mxCell>
        <mxCell id="DYolzxln7jAGXBVzfGWy-73" value="&lt;b&gt;FindClusterPosition&lt;/b&gt;&lt;div&gt;MechClusterUtility&lt;/div&gt;&lt;div&gt;-&amp;gt;&amp;nbsp;IntVec3&lt;/div&gt;&lt;div&gt;Find pos for the cluster&lt;/div&gt;" style="shape=process;whiteSpace=wrap;html=1;backgroundOutline=1;fillColor=#d5e8d4;strokeColor=#82b366;size=0.038461538461538464;" vertex="1" parent="DYolzxln7jAGXBVzfGWy-78">
          <mxGeometry x="40" y="450" width="160" height="60" as="geometry" />
        </mxCell>
        <mxCell id="DYolzxln7jAGXBVzfGWy-74" style="edgeStyle=orthogonalEdgeStyle;rounded=0;orthogonalLoop=1;jettySize=auto;html=1;exitX=0.5;exitY=1;exitDx=0;exitDy=0;" edge="1" parent="DYolzxln7jAGXBVzfGWy-78" source="DYolzxln7jAGXBVzfGWy-40" target="DYolzxln7jAGXBVzfGWy-73">
          <mxGeometry relative="1" as="geometry" />
        </mxCell>
        <mxCell id="DYolzxln7jAGXBVzfGWy-75" value="&lt;b&gt;SpawnCluster&lt;/b&gt;&lt;br&gt;&lt;div&gt;MechClusterUtility&lt;/div&gt;&lt;div&gt;-&amp;gt;&amp;nbsp;IntVec3&lt;/div&gt;&lt;div&gt;Spawn cluster. Return list of Thing&lt;/div&gt;" style="shape=process;whiteSpace=wrap;html=1;backgroundOutline=1;fillColor=#d5e8d4;strokeColor=#82b366;size=0.038461538461538464;" vertex="1" parent="DYolzxln7jAGXBVzfGWy-78">
          <mxGeometry x="40" y="530" width="160" height="80" as="geometry" />
        </mxCell>
      </root>
    </mxGraphModel>
  </diagram>
</mxfile>
